<?xml version="1.0" encoding="UTF-8" standalone="no"?>
<!-- Created with Inkscape (http://www.inkscape.org/) -->

<svg
   width="724"
   height="1024"
   viewBox="0 0 191.55833 270.93333"
   version="1.1"
   id="svg5"
   xml:space="preserve"
   inkscape:export-filename="AW30.jpg"
   inkscape:export-xdpi="96"
   inkscape:export-ydpi="96"
   inkscape:version="1.2.2 (b0a8486, 2022-12-01)"
   sodipodi:docname="コンサート.svg"
   xmlns:inkscape="http://www.inkscape.org/namespaces/inkscape"
   xmlns:sodipodi="http://sodipodi.sourceforge.net/DTD/sodipodi-0.dtd"
   xmlns="http://www.w3.org/2000/svg"
   xmlns:svg="http://www.w3.org/2000/svg"><sodipodi:namedview
     id="namedview7"
     pagecolor="#ffffff"
     bordercolor="#999999"
     borderopacity="1"
     inkscape:showpageshadow="0"
     inkscape:pageopacity="0"
     inkscape:pagecheckerboard="0"
     inkscape:deskcolor="#d1d1d1"
     inkscape:document-units="mm"
     showgrid="false"
     inkscape:zoom="0.30578666"
     inkscape:cx="457.83553"
     inkscape:cy="912.40082"
     inkscape:window-width="1680"
     inkscape:window-height="1050"
     inkscape:window-x="0"
     inkscape:window-y="0"
     inkscape:window-maximized="0"
     inkscape:current-layer="layer1"><inkscape:page
       x="0"
       y="0"
       width="191.55833"
       height="270.93332"
       id="page5822"
       inkscape:export-filename="charity2017.jpg"
       inkscape:export-xdpi="96"
       inkscape:export-ydpi="96" /><inkscape:page
       x="201.55833"
       y="0"
       width="210.00156"
       height="148.00015"
       id="page5824" /></sodipodi:namedview><defs
     id="defs2"><clipPath
       clipPathUnits="userSpaceOnUse"
       id="clipPath5614"><path
         d="M 0,419.528 H 595.28 V 0 H 0 Z"
         id="path5612" /></clipPath></defs><g
     inkscape:label="Layer 1"
     inkscape:groupmode="layer"
     id="layer1"><path
       style="fill:#ffd8e8;fill-opacity:1;stroke:none;stroke-width:0.1;paint-order:markers fill stroke"
       d="M 0,0 H 191.55833 V 270.93333 H 0 Z"
       id="path2477" /><text
       xml:space="preserve"
       style="font-style:italic;font-size:0.899326px;font-family:Arial;-inkscape-font-specification:'Arial, Italic';text-align:center;text-anchor:middle;fill:#d40000;fill-opacity:1;stroke:none;stroke-width:0.0999994;paint-order:markers fill stroke"
       x="98.027878"
       y="64.122444"
       id="text2419"><tspan
         sodipodi:role="line"
         id="tspan2475"
         x="98.027878"
         y="64.122444"
         style="font-style:normal;font-variant:normal;font-weight:bold;font-stretch:normal;font-size:16.1878px;font-family:Arial;-inkscape-font-specification:'Arial, Bold';font-variant-ligatures:normal;font-variant-caps:normal;font-variant-numeric:normal;font-variant-east-asian:normal;fill:#d40000;stroke-width:0.0999994">  チャリティーコンサート  </tspan><tspan
         sodipodi:role="line"
         x="98.027878"
         y="84.363731"
         style="font-style:normal;font-variant:normal;font-weight:bold;font-stretch:normal;font-size:16.1878px;font-family:Arial;-inkscape-font-specification:'Arial, Bold';font-variant-ligatures:normal;font-variant-caps:normal;font-variant-numeric:normal;font-variant-east-asian:normal;fill:#d40000;stroke-width:0.0999994"
         id="tspan6527">ゲスト出演</tspan></text></g><g
     id="g5608"
     transform="matrix(0.38923799,0,0,-0.38908274,-20.070376,279.76035)"
     style="stroke-width:0.90651"><g
       id="g5610"
       clip-path="url(#clipPath5614)"
       style="stroke-width:0.90651"><g
         id="g5616"
         transform="translate(211.0483,93.2363)"
         style="stroke-width:0.90651"><path
           d="m 0,0 c -0.509,-1.389 -1.204,-2.485 -2.085,-3.288 -1.019,-0.928 -2.332,-1.684 -3.969,-2.285 -1.606,-0.572 -3.104,-0.865 -4.525,-0.865 l -0.014,0.246 c 0.895,0.202 1.914,0.619 3.057,1.251 1.961,1.082 3.351,2.363 4.185,3.831 0.772,1.405 1.174,3.257 1.174,5.559 0,0.279 -0.109,0.509 -0.325,0.696 -0.232,0.168 -0.494,0.262 -0.787,0.262 h -2.333 c -0.215,0 -0.54,-0.108 -0.957,-0.295 C -7.011,4.912 -7.273,4.728 -7.367,4.558 -7.428,4.402 -7.536,4.17 -7.66,3.861 -7.783,3.553 -7.984,3.168 -8.262,2.688 c 0.865,0 1.761,-0.232 2.687,-0.663 1.096,-0.542 1.653,-1.205 1.653,-1.977 0,-0.34 -0.14,-0.633 -0.417,-0.911 -0.278,-0.28 -0.587,-0.417 -0.911,-0.417 -0.34,0 -0.634,0.183 -0.896,0.554 -0.093,0.124 -0.278,0.463 -0.525,0.989 -0.185,0.357 -0.448,0.742 -0.788,1.175 -0.417,0.493 -0.772,0.788 -1.05,0.91 -0.973,-1.359 -2.394,-2.377 -4.262,-3.041 l -0.093,0.17 c 1.189,1.081 2.023,2.316 2.517,3.721 0.34,1.019 0.525,2.038 0.525,3.057 0,0.479 -0.17,0.726 -0.51,0.726 V 7.29 l 3.506,0.479 C -6.856,7.29 -6.95,6.518 -7.134,5.468 c 0.524,0.34 1.142,0.525 1.837,0.525 h 3.444 C -0.169,5.993 0.68,5.267 0.68,3.846 0.68,2.534 0.448,1.251 0,0"
           style="fill:#231f20;fill-opacity:1;fill-rule:nonzero;stroke:none;stroke-width:0.90651"
           id="path5618" /></g><g
         id="g5620"
         transform="translate(226.3145,92.9443)"
         style="stroke-width:0.90651"><path
           d="m 0,0 c -0.524,-1.344 -1.281,-2.44 -2.286,-3.274 -0.957,-0.804 -2.131,-1.467 -3.536,-2.007 -1.297,-0.495 -2.625,-0.804 -3.953,-0.958 l -0.108,0.278 c 0.896,0.247 1.884,0.726 2.981,1.436 1.049,0.695 1.899,1.405 2.531,2.13 1.468,1.699 2.209,3.846 2.209,6.426 0,0.602 -0.077,1.002 -0.201,1.203 -0.185,0.248 -0.571,0.371 -1.142,0.371 H -4.679 C -5.08,5.605 -5.497,5.513 -5.945,5.358 -6.439,5.174 -6.794,4.926 -6.979,4.648 -7.011,4.617 -7.073,4.462 -7.165,4.186 -7.289,3.907 -7.459,3.506 -7.69,3.011 -8.123,2.177 -8.787,1.421 -9.667,0.741 c -0.834,-0.649 -1.729,-1.128 -2.671,-1.437 l -0.124,0.186 c 0.401,0.371 0.803,0.802 1.189,1.266 0.556,0.68 0.988,1.592 1.312,2.704 0.279,1.002 0.417,2.007 0.417,3.011 0,0.477 -0.2,0.71 -0.571,0.694 V 7.489 L -6.594,8.03 C -6.625,7.428 -6.717,6.625 -6.841,5.637 c 0.556,0.401 1.267,0.618 2.147,0.618 h 3.042 c 1.56,0 2.348,-0.773 2.348,-2.302 C 0.696,2.531 0.464,1.204 0,0"
           style="fill:#231f20;fill-opacity:1;fill-rule:nonzero;stroke:none;stroke-width:0.90651"
           id="path5622" /></g><g
         id="g5624"
         transform="translate(241.5654,91.5684)"
         style="stroke-width:0.90651"><path
           d="m 0,0 c -0.231,-0.309 -0.509,-0.446 -0.818,-0.446 -0.325,0 -0.68,0.17 -1.081,0.509 -0.17,0.14 -0.463,0.432 -0.88,0.879 -1.128,1.19 -2.456,2.039 -3.969,2.565 V -4.817 H -9.481 V 7.907 c 0,0.141 -0.078,0.263 -0.202,0.371 -0.123,0.109 -0.262,0.17 -0.401,0.201 L -10.1,8.773 -6.748,9.329 V 4.124 c 1.822,-0.2 3.212,-0.447 4.2,-0.741 C -0.633,2.797 0.34,1.993 0.34,0.942 0.34,0.604 0.217,0.295 0,0"
           style="fill:#231f20;fill-opacity:1;fill-rule:nonzero;stroke:none;stroke-width:0.90651"
           id="path5626" /></g><g
         id="g5628"
         transform="translate(254.7168,87.0137)"
         style="stroke-width:0.90651"><path
           d="m 0,0 c -0.696,0 -1.221,0.217 -1.591,0.634 -0.37,0.432 -0.556,0.988 -0.556,1.698 v 9.652 c 0,0.664 -0.217,1.036 -0.648,1.112 l -0.016,0.278 3.335,0.463 V 2.702 c 0,-0.37 0.047,-0.679 0.171,-0.926 0.154,-0.34 0.386,-0.509 0.71,-0.509 0.572,0 1.143,0.247 1.715,0.74 0.463,0.403 0.863,0.912 1.172,1.514 L 4.602,3.336 C 3.644,1.112 2.1,0 0,0 M -5.406,5.914 C -5.714,4.263 -6.255,3.012 -7.042,2.178 -7.83,1.313 -8.972,0.51 -10.486,-0.278 l -0.185,0.202 c 0.71,0.71 1.234,1.373 1.59,1.991 0.34,0.617 0.603,1.405 0.818,2.394 0.202,0.958 0.309,2.439 0.309,4.416 v 1.654 c -0.015,0.725 -0.015,1.281 -0.015,1.651 0,0.432 -0.2,0.695 -0.587,0.757 l -0.015,0.309 3.397,0.478 c 0,-0.37 0,-0.942 0.016,-1.714 0.015,-0.788 0.031,-1.375 0.031,-1.744 0,-1.73 -0.093,-3.136 -0.279,-4.202"
           style="fill:#231f20;fill-opacity:1;fill-rule:nonzero;stroke:none;stroke-width:0.90651"
           id="path5630" /></g><g
         id="g5632"
         transform="translate(266.8936,100.9287)"
         style="stroke-width:0.90651"><path
           d="m 0,0 h 0.387 c 0,-1.483 0.849,-2.58 1.791,-3.397 0.943,-0.819 1.992,-2.024 1.992,-3.475 0,-1.297 -0.556,-2.58 -1.297,-3.769 H 2.471 c 0.34,0.711 0.973,2.008 0.973,3.244 0,1.79 -1.219,3.211 -2.825,3.566 v -7.752 c 0,-1.606 -1.36,-2.625 -2.827,-2.625 -0.71,0 -1.436,0.386 -1.436,1.144 0,1.095 1.406,2.13 2.672,2.13 0.355,0 0.741,-0.078 0.972,-0.201 z"
           style="fill:#231f20;fill-opacity:1;fill-rule:nonzero;stroke:none;stroke-width:0.90651"
           id="path5634" /></g><g
         id="g5636"
         transform="translate(316.0547,258.5396)"
         style="stroke-width:0.90651"><path
           d="m 0,0 c 0,0 29.444,-8.686 41.791,-6.36 7.836,1.477 22.075,6.626 23.734,7.496 2.385,1.249 3.067,3.066 4.316,0.795 1.763,-3.21 2.176,-25.079 -5.338,-38.271 C 55.322,-52.458 39.974,-66.322 32.706,-62.234 25.438,-58.145 0,0 0,0"
           style="fill:#fddcb5;fill-opacity:1;fill-rule:nonzero;stroke:none;stroke-width:0.90651"
           id="path5638" /></g><g
         id="g5640"
         transform="translate(316.0547,258.5396)"
         style="stroke-width:0.90651"><path
           d="m 0,0 c 0,0 29.444,-8.686 41.791,-6.36 7.836,1.477 22.075,6.626 23.734,7.496 2.385,1.249 3.067,3.066 4.316,0.795 1.763,-3.21 2.176,-25.079 -5.338,-38.271 C 55.322,-52.458 39.974,-66.322 32.706,-62.234 25.438,-58.145 0,0 0,0 Z"
           style="fill:none;stroke:#231f20;stroke-width:1.35977;stroke-linecap:butt;stroke-linejoin:miter;stroke-miterlimit:4;stroke-dasharray:none;stroke-opacity:1"
           id="path5642" /></g><g
         id="g5644"
         transform="translate(343.3506,262.9204)"
         style="stroke-width:0.90651"><path
           d="m 0,0 c 0,0 2.278,-4.667 2.713,-6.729 0.434,-2.063 1.302,-7.38 1.302,-7.38 l -1.629,0.325 c 0,0 -2.385,3.799 -5.207,4.992 -2.824,1.195 -7.816,2.063 -7.816,2.063 z"
           style="fill:#fddcb5;fill-opacity:1;fill-rule:nonzero;stroke:none;stroke-width:0.90651"
           id="path5646" /></g><g
         id="g5648"
         transform="translate(343.3506,262.9204)"
         style="stroke-width:0.90651"><path
           d="m 0,0 c 0,0 2.278,-4.667 2.713,-6.729 0.434,-2.063 1.302,-7.38 1.302,-7.38 l -1.629,0.325 c 0,0 -2.385,3.799 -5.207,4.992 -2.824,1.195 -7.816,2.063 -7.816,2.063 z"
           style="fill:none;stroke:#231f20;stroke-width:1.35977;stroke-linecap:round;stroke-linejoin:round;stroke-miterlimit:4;stroke-dasharray:none;stroke-opacity:1"
           id="path5650" /></g><g
         id="g5652"
         transform="translate(341.1797,230.5771)"
         style="stroke-width:0.90651"><path
           d="m 0,0 c 0,0 5.643,2.278 5.859,3.364 0.219,1.086 0.219,-3.473 -0.106,-4.558 -0.326,-1.085 -1.41,-4.45 -1.846,-4.45 -0.434,0 -2.715,2.713 -3.364,3.473 -0.652,0.76 -1.736,1.737 -1.736,1.737 z"
           style="fill:#fddcb5;fill-opacity:1;fill-rule:nonzero;stroke:none;stroke-width:0.90651"
           id="path5654" /></g><g
         id="g5656"
         transform="translate(357.3838,276.604)"
         style="stroke-width:0.90651"><path
           d="M 0,0 C 4.352,1.009 -20.579,11.525 -20.579,11.525 L -31.283,6.037 c 0,0 8.782,-11.251 31.283,-6.037"
           style="fill:#fbca8e;fill-opacity:1;fill-rule:nonzero;stroke:none;stroke-width:0.90651"
           id="path5658" /></g><g
         id="g5660"
         transform="translate(357.3838,276.604)"
         style="stroke-width:0.90651"><path
           d="M 0,0 C 4.352,1.009 -20.579,11.525 -20.579,11.525 L -31.283,6.037 c 0,0 8.782,-11.251 31.283,-6.037 z"
           style="fill:none;stroke:#231f20;stroke-width:0.453255;stroke-linecap:butt;stroke-linejoin:miter;stroke-miterlimit:4;stroke-dasharray:none;stroke-opacity:1"
           id="path5662" /></g><g
         id="g5664"
         transform="translate(258.2124,133.6211)"
         style="stroke-width:0.90651"><path
           d="m 0,0 c 0,0 -4.391,-3.787 1.212,-12.568 5.602,-8.783 29.199,-28.615 34.826,-28.922 8.329,-0.454 0.908,16.96 0.606,18.777 C 36.34,-20.896 25.211,-7.506 24.53,-5.604 19.382,8.781 0,0 0,0"
           style="fill:#5a3114;fill-opacity:1;fill-rule:nonzero;stroke:none;stroke-width:0.90651"
           id="path5666" /></g><g
         id="g5668"
         transform="translate(258.2124,133.6211)"
         style="stroke-width:0.90651"><path
           d="m 0,0 c 0,0 -4.391,-3.787 1.212,-12.568 5.602,-8.783 29.199,-28.615 34.826,-28.922 8.329,-0.454 0.908,16.96 0.606,18.777 C 36.34,-20.896 25.211,-7.506 24.53,-5.604 19.382,8.781 0,0 0,0 Z"
           style="fill:none;stroke:#231f20;stroke-width:1.35977;stroke-linecap:butt;stroke-linejoin:miter;stroke-miterlimit:4;stroke-dasharray:none;stroke-opacity:1"
           id="path5670" /></g><g
         id="g5672"
         transform="translate(367.3848,134.7568)"
         style="stroke-width:0.90651"><path
           d="m 0,0 c 0,0 17.262,8.401 26.574,2.271 9.312,-6.132 3.18,-13.627 0.454,-17.035 -2.725,-3.406 -28.391,-19.305 -33.387,-20.668 -4.997,-1.363 -11.129,-2.953 -16.354,1.59 -5.224,4.542 -1.692,14.98 3.861,19.532 C -12.992,-9.508 0,0 0,0"
           style="fill:#5a3114;fill-opacity:1;fill-rule:nonzero;stroke:none;stroke-width:0.90651"
           id="path5674" /></g><g
         id="g5676"
         transform="translate(367.3848,134.7568)"
         style="stroke-width:0.90651"><path
           d="m 0,0 c 0,0 17.262,8.401 26.574,2.271 9.312,-6.132 3.18,-13.627 0.454,-17.035 -2.725,-3.406 -28.391,-19.305 -33.387,-20.668 -4.997,-1.363 -11.129,-2.953 -16.354,1.59 -5.224,4.542 -1.692,14.98 3.861,19.532 C -12.992,-9.508 0,0 0,0 Z"
           style="fill:none;stroke:#231f20;stroke-width:1.35977;stroke-linecap:butt;stroke-linejoin:miter;stroke-miterlimit:4;stroke-dasharray:none;stroke-opacity:1"
           id="path5678" /></g><g
         id="g5680"
         transform="translate(351.0313,187.6748)"
         style="stroke-width:0.90651"><path
           d="m 0,0 c 0,0 4.004,-22.141 -0.454,-29.98 -13.173,-23.166 -43.572,-45.541 -54.964,-50.42 -0.795,-0.341 -14.082,7.267 -19.685,12.566 -3.353,3.173 -9.994,11.509 -12.567,15.143 -11.758,16.596 18.624,44.06 18.624,44.06 z"
           style="fill:#fddcb5;fill-opacity:1;fill-rule:nonzero;stroke:none;stroke-width:0.90651"
           id="path5682" /></g><g
         id="g5684"
         transform="translate(351.0313,187.6748)"
         style="stroke-width:0.90651"><path
           d="m 0,0 c 0,0 4.004,-22.141 -0.454,-29.98 -13.173,-23.166 -43.572,-45.541 -54.964,-50.42 -0.795,-0.341 -14.082,7.267 -19.685,12.566 -3.353,3.173 -9.994,11.509 -12.567,15.143 -11.758,16.596 18.624,44.06 18.624,44.06 z"
           style="fill:none;stroke:#231f20;stroke-width:1.35977;stroke-linecap:butt;stroke-linejoin:miter;stroke-miterlimit:4;stroke-dasharray:none;stroke-opacity:1"
           id="path5686" /></g><g
         id="g5688"
         transform="translate(332.6348,172.6846)"
         style="stroke-width:0.90651"><path
           d="M 0,0 C 0,0 19.76,2.271 34.522,-13.173 49.286,-28.617 48.378,-27.255 50.194,-31.57 52.012,-35.884 35.886,-44.287 28.617,-49.966 21.35,-55.644 8.857,-64.956 7.268,-65.864 c -1.59,-0.909 -2.953,0.454 -10.448,7.949 -7.496,7.495 -14.536,14.99 -14.536,14.99 0,0 -3.635,-3.634 -20.669,5.224 -17.034,8.856 -18.851,17.941 -19.76,22.257 -0.908,4.315 5.451,23.848 5.451,23.848 z"
           style="fill:#fddcb5;fill-opacity:1;fill-rule:nonzero;stroke:none;stroke-width:0.90651"
           id="path5690" /></g><g
         id="g5692"
         transform="translate(332.6348,172.6846)"
         style="stroke-width:0.90651"><path
           d="M 0,0 C 0,0 19.76,2.271 34.522,-13.173 49.286,-28.617 48.378,-27.255 50.194,-31.57 52.012,-35.884 35.886,-44.287 28.617,-49.966 21.35,-55.644 8.857,-64.956 7.268,-65.864 c -1.59,-0.909 -2.953,0.454 -10.448,7.949 -7.496,7.495 -14.536,14.99 -14.536,14.99 0,0 -3.635,-3.634 -20.669,5.224 -17.034,8.856 -18.851,17.941 -19.76,22.257 -0.908,4.315 5.451,23.848 5.451,23.848 z"
           style="fill:none;stroke:#231f20;stroke-width:1.35977;stroke-linecap:butt;stroke-linejoin:miter;stroke-miterlimit:4;stroke-dasharray:none;stroke-opacity:1"
           id="path5694" /></g><g
         id="g5696"
         transform="translate(280.3955,259.2207)"
         style="stroke-width:0.90651"><path
           d="m 0,0 c 5.635,-0.829 30.829,-11.121 48.832,-21.123 10.221,-5.678 15.218,-12.946 15.218,-12.946 3.406,0.227 1.866,9.545 3.406,8.177 9.651,-8.579 14.99,-26.121 13.856,-42.474 -0.521,-7.489 -0.814,-15.34 -1.818,-18.852 l -1.817,-1.135 c 0,0 -3.315,4.933 -4.996,8.631 -1.136,2.498 -1.364,-9.766 -17.944,-13.628 -12.174,-2.836 -52.239,0 -62.005,10.675 C -17.035,-72 -7.723,1.136 0,0"
           style="fill:#3942a1;fill-opacity:1;fill-rule:nonzero;stroke:none;stroke-width:0.90651"
           id="path5698" /></g><g
         id="g5700"
         transform="translate(280.3955,259.2207)"
         style="stroke-width:0.90651"><path
           d="m 0,0 c 5.635,-0.829 30.829,-11.121 48.832,-21.123 10.221,-5.678 15.218,-12.946 15.218,-12.946 3.406,0.227 1.866,9.545 3.406,8.177 9.651,-8.579 14.99,-26.121 13.856,-42.474 -0.521,-7.489 -0.814,-15.34 -1.818,-18.852 l -1.817,-1.135 c 0,0 -3.315,4.933 -4.996,8.631 -1.136,2.498 -1.364,-9.766 -17.944,-13.628 -12.174,-2.836 -52.239,0 -62.005,10.675 C -17.035,-72 -7.723,1.136 0,0 Z"
           style="fill:none;stroke:#231f20;stroke-width:0.725208;stroke-linecap:butt;stroke-linejoin:miter;stroke-miterlimit:4;stroke-dasharray:none;stroke-opacity:1"
           id="path5702" /></g><g
         id="g5704"
         transform="translate(258.5913,283.0693)"
         style="stroke-width:0.90651"><path
           d="M 0,0 C -0.227,6.208 -2.044,14.082 14.536,32.479 20.688,39.305 42.472,50.195 59.734,49.74 82.933,49.13 102.806,31.156 100.844,27.709 91.532,11.356 82.447,6.132 67.457,-0.228 73.816,-8.177 86.535,-9.767 97.665,-6.36 103.058,-4.708 86.535,-21.804 71.999,-27.482 50.922,-35.716 20.444,-29.065 18.625,-28.391 6.359,-23.849 1.287,-7.723 0,0"
           style="fill:#fddcb5;fill-opacity:1;fill-rule:nonzero;stroke:none;stroke-width:0.90651"
           id="path5706" /></g><g
         id="g5708"
         transform="translate(258.5913,283.0693)"
         style="stroke-width:0.90651"><path
           d="M 0,0 C -0.227,6.208 -2.044,14.082 14.536,32.479 20.688,39.305 42.472,50.195 59.734,49.74 82.933,49.13 102.806,31.156 100.844,27.709 91.532,11.356 82.447,6.132 67.457,-0.228 73.816,-8.177 86.535,-9.767 97.665,-6.36 103.058,-4.708 86.535,-21.804 71.999,-27.482 50.922,-35.716 20.444,-29.065 18.625,-28.391 6.359,-23.849 1.287,-7.723 0,0 Z"
           style="fill:none;stroke:#231f20;stroke-width:1.35977;stroke-linecap:butt;stroke-linejoin:miter;stroke-miterlimit:4;stroke-dasharray:none;stroke-opacity:1"
           id="path5710" /></g><g
         id="g5712"
         transform="translate(317.417,286.0366)"
         style="stroke-width:0.90651"><path
           d="m 0,0 c 7.628,0 13.813,6.4 13.813,14.294 0,7.894 -6.185,14.294 -13.813,14.294 -7.628,0 -13.813,-6.4 -13.813,-14.294 C -13.813,6.4 -7.628,0 0,0"
           style="fill:#ffffff;fill-opacity:1;fill-rule:nonzero;stroke:none;stroke-width:0.90651"
           id="path5714" /></g><g
         id="g5716"
         transform="translate(317.417,286.0366)"
         style="stroke-width:0.90651"><path
           d="m 0,0 c 7.628,0 13.813,6.4 13.813,14.294 0,7.894 -6.185,14.294 -13.813,14.294 -7.628,0 -13.813,-6.4 -13.813,-14.294 C -13.813,6.4 -7.628,0 0,0 Z"
           style="fill:none;stroke:#231f20;stroke-width:0.453255;stroke-linecap:butt;stroke-linejoin:miter;stroke-miterlimit:4;stroke-dasharray:none;stroke-opacity:1"
           id="path5718" /></g><g
         id="g5720"
         transform="translate(317.417,286.0366)"
         style="stroke-width:0.90651"><path
           d="m 0,0 c 7.723,0.667 9.539,4.3 9.539,4.3 2.953,15.218 -5.224,16.808 -5.224,16.808 0.909,-1.817 -0.44,-9.54 -7.495,-9.54 -8.631,0 -7.607,11.814 -9.085,9.086 C -18.17,9.751 -7.6,-0.655 0,0"
           style="fill:#231f20;fill-opacity:1;fill-rule:nonzero;stroke:none;stroke-width:0.90651"
           id="path5722" /></g><g
         id="g5724"
         transform="translate(317.417,286.0366)"
         style="stroke-width:0.90651"><path
           d="m 0,0 c 7.723,0.667 9.539,4.3 9.539,4.3 2.953,15.218 -5.224,16.808 -5.224,16.808 0.909,-1.817 -0.44,-9.54 -7.495,-9.54 -8.631,0 -7.607,11.814 -9.085,9.086 C -18.17,9.751 -7.6,-0.655 0,0 Z"
           style="fill:none;stroke:#231f20;stroke-width:0.181302;stroke-linecap:butt;stroke-linejoin:miter;stroke-miterlimit:4;stroke-dasharray:none;stroke-opacity:1"
           id="path5726" /></g><g
         id="g5728"
         transform="translate(352.3945,189.6006)"
         style="stroke-width:0.90651"><path
           d="m 0,0 c 3.371,0 6.104,3.308 6.104,7.387 0,4.081 -2.733,7.388 -6.104,7.388 -3.371,0 -6.104,-3.307 -6.104,-7.388 C -6.104,3.308 -3.371,0 0,0"
           style="fill:#00adef;fill-opacity:1;fill-rule:nonzero;stroke:none;stroke-width:0.90651"
           id="path5730" /></g><g
         id="g5732"
         transform="translate(352.3945,189.6006)"
         style="stroke-width:0.90651"><path
           d="m 0,0 c 3.371,0 6.104,3.308 6.104,7.387 0,4.081 -2.733,7.388 -6.104,7.388 -3.371,0 -6.104,-3.307 -6.104,-7.388 C -6.104,3.308 -3.371,0 0,0 Z"
           style="fill:none;stroke:#231f20;stroke-width:0.725208;stroke-linecap:butt;stroke-linejoin:miter;stroke-miterlimit:4;stroke-dasharray:none;stroke-opacity:1"
           id="path5734" /></g><g
         id="g5736"
         transform="translate(349.8965,207.9033)"
         style="stroke-width:0.90651"><path
           d="m 0,0 c 3.549,0 6.423,3.452 6.423,7.709 0,4.258 -2.874,7.709 -6.423,7.709 -3.549,0 -6.424,-3.451 -6.424,-7.709 C -6.424,3.452 -3.549,0 0,0"
           style="fill:#00adef;fill-opacity:1;fill-rule:nonzero;stroke:none;stroke-width:0.90651"
           id="path5738" /></g><g
         id="g5740"
         transform="translate(349.8965,207.9033)"
         style="stroke-width:0.90651"><path
           d="m 0,0 c 3.549,0 6.423,3.452 6.423,7.709 0,4.258 -2.874,7.709 -6.423,7.709 -3.549,0 -6.424,-3.451 -6.424,-7.709 C -6.424,3.452 -3.549,0 0,0 Z"
           style="fill:none;stroke:#231f20;stroke-width:0.725208;stroke-linecap:butt;stroke-linejoin:miter;stroke-miterlimit:4;stroke-dasharray:none;stroke-opacity:1"
           id="path5742" /></g><g
         id="g5744"
         transform="translate(340.584,249.2275)"
         style="stroke-width:0.90651"><path
           d="M 0,0 C 0,0 11.583,5.224 12.719,-6.814 13.854,-18.852 10.447,-16.126 5.905,-15.672 1.362,-15.218 0,0 0,0"
           style="fill:#ef3234;fill-opacity:1;fill-rule:nonzero;stroke:none;stroke-width:0.90651"
           id="path5746" /></g><g
         id="g5748"
         transform="translate(340.584,249.2275)"
         style="stroke-width:0.90651"><path
           d="M 0,0 C 0,0 11.583,5.224 12.719,-6.814 13.854,-18.852 10.447,-16.126 5.905,-15.672 1.362,-15.218 0,0 0,0 Z"
           style="fill:none;stroke:#231f20;stroke-width:1.35977;stroke-linecap:butt;stroke-linejoin:miter;stroke-miterlimit:4;stroke-dasharray:none;stroke-opacity:1"
           id="path5750" /></g><g
         id="g5752"
         transform="translate(331.0449,252.8613)"
         style="stroke-width:0.90651"><path
           d="M 0,0 C 3.862,4.829 11.505,1.303 13.173,-0.682 19.688,-8.438 18.17,-21.123 10.675,-22.258 3.18,-23.394 -4.77,-13.173 -4.77,-13.173 Z"
           style="fill:#ef3234;fill-opacity:1;fill-rule:nonzero;stroke:none;stroke-width:0.90651"
           id="path5754" /></g><g
         id="g5756"
         transform="translate(331.0449,252.8613)"
         style="stroke-width:0.90651"><path
           d="M 0,0 C 3.862,4.829 11.505,1.303 13.173,-0.682 19.688,-8.438 18.17,-21.123 10.675,-22.258 3.18,-23.394 -4.77,-13.173 -4.77,-13.173 Z"
           style="fill:none;stroke:#231f20;stroke-width:1.35977;stroke-linecap:butt;stroke-linejoin:miter;stroke-miterlimit:4;stroke-dasharray:none;stroke-opacity:1"
           id="path5758" /></g><g
         id="g5760"
         transform="translate(331.0449,242.8677)"
         style="stroke-width:0.90651"><path
           d="M 0,0 C 0,0 8.176,-0.454 8.857,-2.726 9.539,-4.997 12.33,-7.382 6.813,-14.082 3.634,-17.943 1.135,-21.35 -3.861,-24.984 c -2.962,-2.154 -8.859,-5.905 -13.174,-2.044 -4.316,3.861 -14.819,19.736 -16.353,25.438 -1.59,5.905 -2.866,15.148 4.088,18.625 1.363,0.681 12.946,2.271 18.852,-0.909 C -5.785,13.614 0.454,9.994 2.271,7.268 4.088,4.542 4.315,4.414 4.315,2.271 4.315,0.227 3.406,-0.454 3.406,-0.454"
           style="fill:#ef3234;fill-opacity:1;fill-rule:nonzero;stroke:#231f20;stroke-width:1.35977;stroke-linecap:butt;stroke-linejoin:miter;stroke-miterlimit:4;stroke-dasharray:none;stroke-opacity:1"
           id="path5762" /></g><g
         id="g5764"
         transform="translate(276.5342,257.6309)"
         style="stroke-width:0.90651"><path
           d="m 0,0 c 0,0 -0.908,17.716 -18.625,25.438 -4.246,1.851 -30.434,-8.176 -43.607,-21.804 -5.255,-5.436 -19.988,-29.981 -17.716,-54.511 2.271,-24.53 9.993,-33.16 16.353,-43.154 6.359,-9.993 25.438,-21.35 36.794,-23.621 11.357,-2.27 18.17,0.454 18.17,0.454 0,0 10.675,6.339 14.99,14.536 4.543,8.631 7.268,19.533 3.181,29.072 z"
           style="fill:#6eca70;fill-opacity:1;fill-rule:nonzero;stroke:none;stroke-width:0.90651"
           id="path5766" /></g><g
         id="g5768"
         transform="translate(276.5342,257.6309)"
         style="stroke-width:0.90651"><path
           d="m 0,0 c 0,0 -0.908,17.716 -18.625,25.438 -4.246,1.851 -30.434,-8.176 -43.607,-21.804 -5.255,-5.436 -19.988,-29.981 -17.716,-54.511 2.271,-24.53 9.993,-33.16 16.353,-43.154 6.359,-9.993 25.438,-21.35 36.794,-23.621 11.357,-2.27 18.17,0.454 18.17,0.454 0,0 10.675,6.339 14.99,14.536 4.543,8.631 7.268,19.533 3.181,29.072 z"
           style="fill:none;stroke:#231f20;stroke-width:1.35977;stroke-linecap:butt;stroke-linejoin:miter;stroke-miterlimit:4;stroke-dasharray:none;stroke-opacity:1"
           id="path5770" /></g><g
         id="g5772"
         transform="translate(271.5376,250.3628)"
         style="stroke-width:0.90651"><path
           d="m 0,0 c -2.271,16.808 -12.265,34.069 -22.258,30.889 -3.57,-1.136 -21.805,-6.359 -34.978,-19.987 -5.255,-5.436 -19.987,-29.981 -17.716,-54.511 2.271,-24.53 9.994,-33.16 16.353,-43.154 6.36,-9.993 25.438,-21.35 36.795,-23.621 11.356,-2.27 6.813,-0.908 6.813,-0.908 0,0 14.082,9.539 19.988,16.352 6.387,7.371 8.176,26.347 4.088,35.887 0,0 -8.066,51.508 -9.085,59.053"
           style="fill:#a3dd9d;fill-opacity:1;fill-rule:nonzero;stroke:none;stroke-width:0.90651"
           id="path5774" /></g><g
         id="g5776"
         transform="translate(271.5376,250.3628)"
         style="stroke-width:0.90651"><path
           d="m 0,0 c -2.271,16.808 -12.265,34.069 -22.258,30.889 -3.57,-1.136 -21.805,-6.359 -34.978,-19.987 -5.255,-5.436 -19.987,-29.981 -17.716,-54.511 2.271,-24.53 9.994,-33.16 16.353,-43.154 6.36,-9.993 25.438,-21.35 36.795,-23.621 11.356,-2.27 6.813,-0.908 6.813,-0.908 0,0 14.082,9.539 19.988,16.352 6.387,7.371 8.176,26.347 4.088,35.887 0,0 -8.066,51.508 -9.085,59.053 z"
           style="fill:none;stroke:#231f20;stroke-width:0.725208;stroke-linecap:butt;stroke-linejoin:miter;stroke-miterlimit:4;stroke-dasharray:none;stroke-opacity:1"
           id="path5778" /></g><g
         id="g5780"
         transform="translate(233.8345,258.9937)"
         style="stroke-width:0.90651"><path
           d="m 0,0 c 0,0 -14.082,-6.814 -14.082,-24.984 0,-18.17 12.265,-21.804 14.082,-22.258"
           style="fill:none;stroke:#231f20;stroke-width:0.453255;stroke-linecap:butt;stroke-linejoin:miter;stroke-miterlimit:4;stroke-dasharray:none;stroke-opacity:1"
           id="path5782" /></g><g
         id="g5784"
         transform="translate(213.3931,259.9023)"
         style="stroke-width:0.90651"><path
           d="m 0,0 c 0,0 0.909,-2.726 5.905,-4.542 4.997,-1.818 7.722,-0.455 7.722,-0.455"
           style="fill:none;stroke:#231f20;stroke-width:0.453255;stroke-linecap:butt;stroke-linejoin:miter;stroke-miterlimit:4;stroke-dasharray:none;stroke-opacity:1"
           id="path5786" /></g><g
         id="g5788"
         transform="translate(232.9258,274.8926)"
         style="stroke-width:0.90651"><path
           d="m 0,0 c 0,0 -0.454,-17.716 3.634,-21.804 7.769,-7.769 4.997,-10.448 23.167,-14.082"
           style="fill:none;stroke:#231f20;stroke-width:0.453255;stroke-linecap:butt;stroke-linejoin:miter;stroke-miterlimit:4;stroke-dasharray:none;stroke-opacity:1"
           id="path5790" /></g><g
         id="g5792"
         transform="translate(196.5859,212.6602)"
         style="stroke-width:0.90651"><path
           d="M 0,0 C 0,0 1.363,2.271 2.726,3.634 4.088,4.997 6.813,5.451 6.813,5.451 3.18,5.905 1.817,10.448 1.817,10.448"
           style="fill:none;stroke:#231f20;stroke-width:0.453255;stroke-linecap:butt;stroke-linejoin:miter;stroke-miterlimit:4;stroke-dasharray:none;stroke-opacity:1"
           id="path5794" /></g><g
         id="g5796"
         transform="translate(202.9453,183.1328)"
         style="stroke-width:0.90651"><path
           d="m 0,0 c 0,0 -0.454,4.997 4.088,8.177 4.543,3.179 10.902,2.724 10.902,2.724"
           style="fill:none;stroke:#231f20;stroke-width:0.453255;stroke-linecap:butt;stroke-linejoin:miter;stroke-miterlimit:4;stroke-dasharray:none;stroke-opacity:1"
           id="path5798" /></g><g
         id="g5800"
         transform="translate(236.5601,144.5215)"
         style="stroke-width:0.90651"><path
           d="M 0,0 C 0,0 -4.088,13.627 -0.454,21.804 3.18,29.98 9.994,38.157 10.448,36.34"
           style="fill:none;stroke:#231f20;stroke-width:0.453255;stroke-linecap:butt;stroke-linejoin:miter;stroke-miterlimit:4;stroke-dasharray:none;stroke-opacity:1"
           id="path5802" /></g><g
         id="g5804"
         transform="translate(213.3931,194.9434)"
         style="stroke-width:0.90651"><path
           d="m 0,0 c 0,0 -8.176,6.813 -9.085,14.991 -0.909,8.176 -0.454,14.082 7.268,19.987 l 7.722,5.905 c 0,0 -2.271,-1.362 -8.176,0.455 -5.905,1.817 -7.723,7.268 -7.723,7.268"
           style="fill:none;stroke:#231f20;stroke-width:0.453255;stroke-linecap:butt;stroke-linejoin:miter;stroke-miterlimit:4;stroke-dasharray:none;stroke-opacity:1"
           id="path5806" /></g><g
         id="g5808"
         transform="translate(233.8345,211.7515)"
         style="stroke-width:0.90651"><path
           d="m 0,0 c 0,0 -14.536,-5.452 -15.899,-17.717 -1.418,-12.769 -0.454,-14.081 3.18,-19.987 3.634,-5.905 14.082,-10.902 14.082,-10.902 0,0 -9.085,4.543 -14.082,1.817 -4.997,-2.725 -4.543,-6.36 -4.543,-6.36"
           style="fill:none;stroke:#231f20;stroke-width:0.453255;stroke-linecap:butt;stroke-linejoin:miter;stroke-miterlimit:4;stroke-dasharray:none;stroke-opacity:1"
           id="path5810" /></g><g
         id="g5812"
         transform="translate(255.6387,232.647)"
         style="stroke-width:0.90651"><path
           d="m 0,0 c 0,0 -9.085,-0.454 -13.627,-4.997 -4.543,-4.542 -8.177,-13.628 -8.177,-15.899 0,-2.271 3.058,-14.095 4.996,-15.899 C -3.634,-49.06 -2.271,-49.968 4.997,-45.88 12.265,-41.792 0,0 0,0 Z"
           style="fill:none;stroke:#231f20;stroke-width:0.453255;stroke-linecap:butt;stroke-linejoin:miter;stroke-miterlimit:4;stroke-dasharray:none;stroke-opacity:1"
           id="path5814" /></g><g
         id="g5816"
         transform="translate(257.4556,182.2236)"
         style="stroke-width:0.90651"><path
           d="m 0,0 c 0,0 -9.854,9.265 -11.356,13.174 -4.543,11.81 -2.14,23.241 -0.455,29.981 1.817,7.268 9.085,17.716 13.628,24.076 4.542,6.359 9.994,10.902 11.81,10.902 1.818,0 6.36,3.18 12.266,-0.454 6.297,-3.876 16.353,-18.625 19.078,-24.53 2.726,-5.905 5.84,-9.721 8.177,-24.075 3.18,-19.534 -16.354,-35.433 -22.259,-39.975 -5.905,-4.543 -18.624,-8.177 -27.709,-6.36 -7.467,1.494 -11.592,10.189 -14.082,15.445 -4.088,8.63 0.454,13.627 0.454,13.627"
           style="fill:#fddcb5;fill-opacity:1;fill-rule:nonzero;stroke:#231f20;stroke-width:1.35977;stroke-linecap:butt;stroke-linejoin:miter;stroke-miterlimit:4;stroke-dasharray:none;stroke-opacity:1"
           id="path5818" /></g></g></g></svg>
