<?xml version="1.0" standalone="no"?>
<!DOCTYPE svg PUBLIC "-//W3C//DTD SVG 20010904//EN"
 "http://www.w3.org/TR/2001/REC-SVG-20010904/DTD/svg10.dtd">
<svg version="1.0" xmlns="http://www.w3.org/2000/svg"
 width="2484.000000pt" height="2484.000000pt" viewBox="0 0 2484.000000 2484.000000"
 preserveAspectRatio="xMidYMid meet">
<metadata>
Created by potrace 1.14, written by Peter Selinger 2001-2017
</metadata>
<g transform="translate(0.000000,2484.000000) scale(0.100000,-0.100000)"
fill="#000000" stroke="none">
<path d="M13165 18739 c-510 -58 -1113 -269 -1598 -558 -272 -162 -403 -281
-644 -581 -169 -210 -291 -395 -378 -575 -128 -261 -160 -387 -160 -640 l0
-170 -85 -1 c-208 -2 -611 -141 -1050 -360 -604 -302 -1059 -653 -1287 -994
-392 -586 -668 -1331 -738 -1994 -56 -538 51 -1288 260 -1818 109 -275 227
-486 514 -918 141 -212 179 -259 311 -389 183 -179 506 -417 776 -569 228
-129 522 -259 719 -318 190 -58 501 -101 645 -90 l85 7 31 -70 32 -70 -97 -33
c-112 -38 -150 -68 -182 -140 -31 -72 -38 -216 -14 -308 21 -81 89 -228 144
-309 268 -394 1184 -1196 1613 -1412 117 -59 185 -75 253 -60 132 30 186 150
164 367 -9 83 -49 268 -83 376 l-14 46 151 84 c252 138 664 423 970 670 l79
63 396 -396 c226 -226 421 -413 453 -433 76 -50 112 -54 173 -21 27 14 49 24
50 23 1 -2 7 -34 13 -72 32 -192 182 -338 409 -396 197 -51 499 -1 759 124
432 208 1387 815 1547 983 53 56 145 188 183 264 53 103 67 167 63 272 -3 79
-8 102 -36 161 -40 84 -154 201 -252 259 -114 66 -287 107 -456 107 l-61 0 -6
36 c-12 72 -92 216 -169 304 -156 178 -727 766 -818 842 -131 110 -280 208
-430 283 l-127 64 -6 163 c-4 90 -9 192 -12 228 l-6 65 32 -60 c43 -81 184
-317 208 -346 l18 -23 56 34 c56 34 57 34 72 104 8 39 19 109 25 156 21 177
60 832 60 1007 l0 181 40 30 c23 16 90 74 151 128 289 259 625 693 809 1048
154 295 253 684 291 1143 15 184 6 590 -15 692 -19 92 -55 155 -96 170 -38 13
-59 5 -143 -52 -74 -51 -189 -97 -502 -203 -251 -85 -474 -152 -655 -196 -114
-28 -144 -31 -335 -35 -115 -2 -230 0 -254 4 l-45 8 -22 110 c-24 122 -35 155
-95 292 -23 52 -40 95 -38 97 2 2 72 57 154 123 251 201 469 422 524 530 31
63 28 99 -14 137 -87 80 -399 240 -920 471 -46 21 -56 29 -45 36 310 190 481
326 658 522 202 225 452 600 452 677 0 149 -299 443 -693 682 -383 232 -802
381 -1218 433 -131 16 -422 18 -544 4z m466 -69 c415 -42 836 -183 1225 -411
277 -162 547 -388 649 -542 57 -88 57 -90 -29 -230 -324 -528 -651 -830 -1192
-1100 -82 -40 -220 -105 -306 -142 -87 -38 -158 -73 -158 -77 0 -19 157 -170
226 -218 221 -153 476 -224 804 -224 198 0 322 15 484 58 47 13 86 21 86 18 0
-16 -99 -131 -191 -223 -338 -336 -814 -659 -1160 -789 l-87 -32 -128 77
c-201 119 -336 182 -444 207 -84 20 -124 22 -340 23 -365 0 -469 -25 -585
-140 -59 -59 -119 -169 -139 -251 l-13 -59 -59 2 c-161 6 -151 2 -262 127
-220 248 -383 348 -588 364 l-86 7 -37 111 c-136 401 -395 712 -762 913 l-76
41 -7 118 c-14 244 27 435 149 687 138 285 507 770 713 936 147 119 407 277
622 377 616 287 1216 419 1691 372z m1069 -2375 c358 -160 711 -343 748 -388
10 -12 -10 -20 -135 -50 -82 -20 -183 -41 -226 -47 -99 -13 -370 -13 -462 0
-171 25 -335 79 -465 155 -73 43 -220 159 -220 173 0 5 87 47 193 95 105 48
223 105 262 126 50 28 75 37 90 31 11 -4 108 -47 215 -95z m-4242 -199 c153
-77 268 -161 398 -290 134 -134 216 -248 294 -410 56 -116 115 -285 103 -296
-20 -17 -255 -72 -264 -62 -3 4 -25 60 -49 124 -167 463 -449 831 -707 925
-35 13 -74 24 -86 24 -49 3 83 27 151 28 67 1 79 -2 160 -43z m-243 -45 c163
-57 348 -238 487 -477 64 -108 159 -309 201 -424 56 -151 57 -139 -10 -187
-189 -134 -380 -358 -662 -777 -62 -92 -118 -166 -125 -166 -30 0 -177 54
-263 96 -110 54 -197 131 -317 278 -44 56 -121 146 -170 200 -53 60 -98 121
-112 153 -68 154 -110 449 -116 813 l-3 165 122 61 c189 94 513 218 718 275
83 23 165 20 250 -10z m-1112 -533 c7 -207 21 -368 42 -488 12 -66 11 -76 -2
-85 -182 -116 -321 -241 -428 -384 -123 -163 -223 -393 -262 -601 -25 -135
-25 -487 0 -615 76 -380 268 -644 574 -787 l86 -40 -89 -47 c-216 -114 -410
-276 -527 -438 -69 -95 -157 -311 -157 -384 0 -11 -27 -17 -122 -26 -351 -34
-568 -180 -633 -424 -16 -58 -20 -139 -7 -139 4 0 13 35 20 78 42 268 274 438
626 459 l109 6 -6 -59 c-45 -419 -28 -602 74 -793 133 -248 248 -371 511 -548
62 -41 104 -73 93 -70 -131 38 -157 41 -285 42 -134 0 -136 0 -203 -33 -110
-54 -201 -149 -238 -247 l-11 -30 -45 50 c-84 93 -431 629 -542 836 -231 433
-383 1043 -417 1677 -7 138 -9 133 98 269 51 64 131 115 204 129 46 9 43 28
-8 43 -54 17 -136 99 -171 174 -27 56 -55 80 -41 35 23 -75 108 -184 167 -215
l29 -14 -69 -33 c-69 -33 -109 -70 -172 -158 -19 -27 -35 -47 -36 -45 -8 9 20
302 41 437 45 289 156 682 270 953 l37 89 38 -61 c118 -187 323 -295 590 -310
l106 -6 -170 -130 c-236 -180 -281 -218 -354 -305 -77 -90 -154 -240 -178
-350 -35 -160 -28 -447 16 -620 26 -101 114 -275 195 -384 78 -106 244 -280
255 -269 5 5 -30 48 -76 96 -225 234 -348 463 -375 697 -7 52 -12 163 -12 245
0 128 4 164 25 246 61 234 158 350 535 638 122 93 210 167 205 172 -5 5 -26 4
-48 -2 -96 -27 -317 11 -455 78 -91 44 -211 159 -255 244 l-29 56 50 104 c73
155 189 372 257 479 68 110 167 250 176 250 3 0 16 -16 28 -35 51 -78 196
-164 348 -206 125 -35 325 -30 325 7 0 12 -5 13 -22 7 -13 -4 -75 -8 -138 -8
-131 0 -197 17 -332 87 -77 40 -188 141 -188 171 0 20 209 220 337 323 131
104 348 250 503 338 63 36 118 66 121 66 3 0 9 -87 12 -192z m5731 -647 c26
-73 69 -290 64 -321 -2 -16 -11 -10 -45 35 -74 95 -196 160 -359 191 -49 9
-109 21 -133 28 l-44 11 124 72 c68 39 165 99 214 131 l90 60 33 -70 c17 -39
43 -100 56 -137z m-3343 155 c132 -28 247 -105 405 -268 159 -165 318 -369
491 -628 129 -194 189 -299 313 -551 178 -361 236 -527 313 -894 41 -198 42
-202 42 -410 0 -196 -2 -217 -27 -317 -58 -227 -142 -411 -288 -631 -200 -302
-532 -640 -852 -870 -353 -253 -1049 -389 -1412 -277 -224 70 -427 307 -616
718 -71 155 -89 219 -97 342 -6 99 7 177 45 262 l17 40 75 -94 c41 -51 157
-176 257 -278 l181 -185 26 24 25 24 -166 171 c-188 194 -311 337 -366 428
-21 35 -53 111 -72 170 -126 399 -126 833 0 1347 42 169 74 253 174 446 129
251 436 720 627 959 100 124 312 330 385 373 34 21 103 45 189 67 202 52 226
54 331 32z m5404 -20 c36 -55 49 -170 49 -461 1 -433 -47 -762 -161 -1110 -72
-220 -136 -344 -319 -620 -139 -210 -289 -398 -452 -566 -123 -128 -288 -276
-297 -267 -3 2 -12 60 -21 129 -69 544 -275 1059 -553 1384 l-60 70 59 6 c76
8 121 41 147 106 26 68 26 413 0 518 -38 151 -106 246 -212 296 -33 16 -65 29
-72 29 -6 0 -14 4 -17 9 -3 5 92 8 217 8 205 -1 232 1 349 26 166 35 448 117
723 210 364 123 440 154 530 216 33 22 63 41 67 41 4 0 14 -11 23 -24z m-3490
-44 c104 -27 135 -40 285 -125 183 -103 366 -225 439 -292 77 -72 156 -186
172 -249 11 -45 6 -118 -9 -144 -6 -9 -27 -10 -84 -4 l-76 8 -6 -29 c-11 -54
-11 -54 92 -65 114 -13 242 -45 286 -70 23 -14 38 -37 65 -102 73 -182 43
-266 -211 -575 -214 -262 -426 -450 -618 -549 -231 -119 -370 -103 -517 61
-134 148 -239 298 -273 391 -42 112 -266 579 -338 702 -30 52 -85 142 -123
200 -66 103 -68 107 -80 200 -29 241 19 439 136 549 72 68 118 89 237 106 155
22 516 14 623 -13z m-4222 -110 c29 -111 71 -187 145 -266 38 -39 123 -136
189 -217 73 -88 145 -164 184 -194 74 -56 211 -123 319 -156 41 -13 76 -24 78
-25 1 0 -36 -66 -83 -145 -47 -79 -109 -190 -138 -246 -48 -95 -55 -103 -95
-119 -69 -26 -186 -110 -242 -172 -128 -142 -283 -420 -355 -633 -19 -59 -35
-114 -35 -123 0 -23 -15 -20 -100 17 -338 147 -547 473 -591 917 -45 473 99
900 411 1210 95 95 257 220 285 220 6 0 18 -31 28 -68z m5040 -103 c-8 -8 -16
-8 -30 0 -16 9 -14 10 12 11 21 0 26 -3 18 -11z m273 -54 c196 -41 297 -123
389 -316 126 -266 106 -603 -46 -759 -44 -45 -120 -84 -181 -93 l-38 -6 19 37
c35 68 53 151 49 216 -5 78 -66 231 -107 267 -30 28 -122 67 -178 76 -29 5
-31 8 -22 30 14 37 11 155 -5 201 -19 53 -102 176 -154 228 l-41 41 22 20 c31
29 81 53 130 63 63 12 81 11 163 -5z m-374 -17 c-9 -9 -15 -9 -24 0 -9 9 -7
12 12 12 19 0 21 -3 12 -12z m925 -260 c124 -58 183 -217 184 -503 2 -253 -21
-283 -187 -254 l-63 11 21 46 c32 75 48 169 48 290 0 155 -25 264 -97 430 -7
16 34 8 94 -20z m-127 -941 c-13 -130 -32 -196 -66 -228 l-26 -24 -41 50 c-23
28 -66 75 -94 106 -29 31 -53 58 -53 61 0 3 20 8 45 11 60 6 161 57 204 101
19 20 36 34 38 32 2 -2 -1 -51 -7 -109z m-5135 -75 c-58 -143 -123 -429 -150
-657 -19 -168 -19 -460 0 -610 18 -139 74 -360 114 -456 l30 -70 -36 -75 c-19
-40 -37 -74 -39 -74 -1 0 -67 59 -146 131 -102 93 -152 147 -175 187 -59 104
-175 490 -204 677 -10 70 -10 88 5 140 88 312 309 677 482 796 45 30 137 80
141 75 2 -1 -8 -30 -22 -64z m5424 -343 c253 -127 250 -560 -5 -685 -46 -22
-64 -26 -121 -22 -119 7 -199 66 -256 186 -30 63 -32 74 -32 182 0 104 3 121
27 172 81 174 238 241 387 167z m-6049 -631 c35 -199 134 -526 194 -647 29
-56 57 -87 186 -206 l153 -141 1 -160 c1 -151 3 -164 32 -249 l32 -90 -72 -76
c-162 -173 -386 -538 -448 -731 -12 -38 -26 -68 -31 -68 -5 0 -57 28 -115 61
-229 132 -422 282 -520 405 -71 89 -176 276 -208 369 -24 71 -28 99 -32 241
-5 186 19 475 49 594 72 282 315 546 668 727 47 24 88 43 91 43 4 0 13 -33 20
-72z m6188 -345 c57 -35 116 -110 139 -178 25 -71 24 -213 -1 -282 -27 -72
-82 -141 -140 -178 -44 -27 -58 -30 -126 -30 -68 0 -82 3 -126 30 -235 146
-207 568 43 661 60 23 154 12 211 -23z m-5504 -1321 c172 -342 359 -554 565
-638 108 -43 223 -57 441 -51 243 6 418 36 640 111 40 14 76 23 79 21 8 -8
-37 -163 -77 -264 -88 -224 -183 -338 -512 -618 -211 -179 -665 -513 -697
-513 -52 0 -429 85 -534 120 -140 47 -415 166 -439 190 -9 9 -26 63 -38 121
-71 336 -79 622 -25 836 32 130 198 433 343 628 61 82 166 205 176 205 2 0 37
-67 78 -148z m5350 -211 c6 -117 5 -143 -6 -139 -10 4 -128 42 -196 64 -9 3 6
26 43 67 31 34 75 92 98 129 51 82 51 82 61 -121z m-190 -157 c301 -87 612
-260 831 -464 52 -49 392 -399 645 -665 142 -150 196 -221 235 -312 l36 -85
-25 -53 c-53 -108 -204 -230 -680 -547 -166 -111 -386 -267 -491 -348 -230
-178 -705 -534 -871 -653 -87 -63 -129 -87 -150 -87 -22 0 -50 16 -100 56 -79
65 -682 669 -949 952 l-180 191 -21 -20 c-104 -98 -546 16 -1004 258 -346 183
-595 373 -761 581 l-59 73 66 77 c36 42 86 107 110 143 55 83 161 302 209 432
38 103 95 316 95 354 0 12 4 24 9 27 5 3 76 -10 157 -29 286 -67 694 -126
1084 -157 210 -16 784 -16 925 0 232 27 384 70 560 157 72 35 153 82 180 104
28 21 52 40 55 40 3 1 46 -11 94 -25z m-3148 -155 c-52 -254 -199 -597 -330
-770 -119 -157 -299 -325 -513 -478 -120 -85 -147 -97 -277 -122 -113 -22
-327 -37 -311 -22 6 5 78 59 160 119 404 293 752 608 849 766 59 97 110 219
156 375 l35 122 125 63 c69 35 126 63 127 62 1 0 -8 -52 -21 -115z m-2936
-108 c77 -20 186 -56 254 -86 34 -14 37 -19 32 -43 -4 -15 -10 -100 -13 -188
-6 -188 6 -333 46 -531 16 -76 27 -140 25 -142 -5 -6 -256 140 -388 226 -242
158 -586 442 -586 482 0 10 14 45 31 79 48 97 159 185 271 217 68 19 224 13
328 -14z m2603 -1053 c163 -187 451 -391 787 -558 425 -213 774 -307 943 -256
l46 14 116 -124 116 -123 -68 -56 c-301 -251 -794 -585 -1051 -714 l-104 -52
-85 42 c-104 52 -323 181 -475 282 -202 133 -320 227 -449 356 -259 260 -679
802 -679 877 0 9 11 14 33 14 49 0 213 37 260 58 81 37 387 271 467 357 l25
27 25 -33 c14 -19 55 -68 93 -111z"/>
<path d="M13307 17785 c-410 -78 -678 -507 -571 -918 63 -246 249 -444 489
-524 69 -23 97 -27 200 -27 167 0 279 34 413 126 200 137 327 410 309 661 -8
112 -29 185 -83 296 -39 78 -62 110 -133 181 -55 56 -111 101 -156 126 -140
77 -317 107 -468 79z m309 -38 c219 -63 396 -236 474 -463 50 -143 47 -327 -6
-477 -28 -78 -99 -201 -135 -232 l-22 -20 6 40 c32 193 28 380 -9 505 -40 138
-130 250 -235 294 l-36 15 5 -56 c9 -105 -39 -240 -114 -323 -20 -22 -66 -54
-102 -72 -62 -31 -73 -33 -172 -33 -95 0 -111 3 -161 28 -107 52 -169 141
-235 335 -47 141 -48 131 20 221 83 110 239 213 373 245 95 23 257 20 349 -7z"/>
</g>
</svg>
