<?xml version="1.0" encoding="UTF-8" standalone="no"?>
<!-- Created with Inkscape (http://www.inkscape.org/) -->

<svg
   width="1400"
   height="500"
   viewBox="0 0 370.41668 132.29167"
   version="1.1"
   id="svg5"
   xml:space="preserve"
   xmlns:inkscape="http://www.inkscape.org/namespaces/inkscape"
   xmlns:sodipodi="http://sodipodi.sourceforge.net/DTD/sodipodi-0.dtd"
   xmlns="http://www.w3.org/2000/svg"
   xmlns:svg="http://www.w3.org/2000/svg"><sodipodi:namedview
     id="namedview7"
     pagecolor="#ffffff"
     bordercolor="#999999"
     borderopacity="1"
     inkscape:showpageshadow="0"
     inkscape:pageopacity="0"
     inkscape:pagecheckerboard="0"
     inkscape:deskcolor="#d1d1d1"
     inkscape:document-units="mm"
     showgrid="false" /><defs
     id="defs2"><clipPath
       clipPathUnits="userSpaceOnUse"
       id="clipPath148"><path
         d="M 0,419.528 H 595.28 V 0 H 0 Z"
         id="path146" /></clipPath></defs><g
     id="g142"
     transform="matrix(1.0261795,0,0,-1.0261795,-120.2218,281.40171)"
     style="stroke-width:0.343778"><g
       id="g144"
       clip-path="url(#clipPath148)"
       style="stroke-width:0.343778"><g
         id="g150"
         transform="translate(296.8608,243.8672)"
         style="stroke-width:0.343778"><path
           d="m 0,0 c -0.439,-0.767 -4.173,-4.932 -5.162,-5.918 -8.786,-9.425 -21.212,-27.947 -21.212,-41.099 0,-7.57 3.744,-14.98 12.316,-14.98 5.052,0 8.677,1.781 12.63,4.9 2.416,-3.787 5.162,-4.9 9.444,-4.9 4.832,0 8.786,1.893 12.41,4.042 12.08,7.212 21.813,25.734 21.813,43.16 0,7.929 -2.811,17.244 -10.27,17.244 -0.328,0 -0.658,-0.11 -0.658,-0.659 0,-0.548 3.619,-0.877 5.045,-2.523 2.412,-2.85 3.072,-6.352 3.072,-9.855 0,-14.169 -14.149,-49.405 -32.179,-49.405 -3.187,0 -6.043,1.609 -7.142,4.183 8.899,8.029 17.935,22.83 17.935,35.219 0,3.509 -1.448,6.61 -4.971,6.61 -9.779,0 -16.946,-19.328 -16.946,-29.963 0,-5.372 0.446,-8.661 1.226,-11.643 -2.65,-2.261 -6.597,-4.406 -10.543,-4.406 -5.919,0 -7.016,4.739 -7.016,9.8 0,11.84 5.262,24.339 11.949,35.21 C -1.431,-4.02 5.05,2.777 5.05,3.216 c 0,0.439 -0.218,0.659 -0.549,0.659 -0.769,0 -4.613,-1.426 -10.02,-1.426 -6.68,0.061 -8.984,2.03 -17.552,2.03 -4.18,0 -9.336,-4.157 -9.336,-5.583 0,-0.22 0.109,-0.329 0.329,-0.329 1.097,-0.102 1.426,1.872 6.035,1.872 2.092,0 3.633,-0.768 6.384,-1.535 1.853,-0.514 4.596,-1.282 7.118,-1.282 4.304,-0.033 8.368,0.954 12.431,2.488 z m 16.038,-21.468 c 0,-13.376 -13.843,-32.562 -16.48,-32.562 -1.099,0 -1.429,6.578 -1.429,11.182 0,8.443 7.032,26.863 14.942,26.863 2.197,0 2.967,-1.317 2.967,-5.483"
           style="fill:#231f20;fill-opacity:1;fill-rule:nonzero;stroke:none;stroke-width:0.343778"
           id="path152" /></g><g
         id="g154"
         transform="translate(368.0576,226.5215)"
         style="stroke-width:0.343778"><path
           d="m 0,0 c 0,-1.746 -1.527,-3.6 -3.6,-3.6 -2.074,0 -3.601,1.854 -3.601,3.6 0,1.745 1.527,3.6 3.601,3.6 C -1.527,3.6 0,1.745 0,0 m -8.078,-15.6 c 0,-0.542 -0.329,-0.867 -0.657,-1.409 -7.571,-13.581 -12.397,-21.254 -12.397,-22.898 0,-1.316 0.877,-2.74 2.305,-2.74 0.658,0 1.205,0.547 1.863,0.547 0.33,0 0.77,-0.109 0.77,-0.438 0,-2.002 -3.291,-2.113 -4.828,-2.113 -1.866,0 -3.731,0.445 -5.594,0.445 -1.647,0 -3.403,-0.445 -5.156,-0.445 -1.975,0 -2.415,-0.11 -2.415,0.779 0,0.668 1.208,1.225 2.963,1.225 3.071,0 8.448,13.592 13.823,21.942 -1.866,-0.222 -4.498,-1.334 -5.815,-1.334 -0.221,0 -0.549,0.11 -0.549,0.556 0,0.556 0.44,1 0.989,1.222 2.412,0.976 12.943,5.636 13.82,5.636 0.658,0 0.878,-0.434 0.878,-0.975"
           style="fill:#231f20;fill-opacity:1;fill-rule:nonzero;stroke:none;stroke-width:0.343778"
           id="path156" /></g><g
         id="g158"
         transform="translate(389.6074,209.5342)"
         style="stroke-width:0.343778"><path
           d="m 0,0 c -7.681,0 -13.493,-10.312 -16.675,-16.12 -1.207,-2.083 -3.621,-6.031 -3.621,-8.334 0,-0.877 0.549,-1.206 1.207,-1.206 1.317,0 2.195,1.864 2.963,1.864 0.547,0 0.768,-0.438 0.768,-0.878 0,-1.32 -4.059,-2.99 -5.047,-2.99 -2.852,0 -4.389,0.445 -5.266,0.445 -1.316,0 -3.619,-0.445 -5.374,-0.445 -0.658,0 -1.537,0 -1.537,0.445 0,0.557 0.988,1.559 2.084,1.559 2.304,0 3.62,1.644 4.499,3.399 3.619,6.689 6.801,13.269 10.311,19.958 -1.754,-0.219 -4.278,-1.316 -5.813,-1.316 -0.439,0 -0.549,0.219 -0.549,0.549 0,0.986 5.375,2.412 11.19,4.681 0.877,0.322 1.644,0.751 2.193,0.751 0.439,0 0.658,-0.429 0.658,-0.751 0,-0.86 -1.097,-2.489 -1.316,-3.811 2.523,1.979 8.666,5.238 11.958,5.238 4.617,0 7.922,-2.387 7.922,-7.218 0,-9.019 -11.764,-17.927 -11.764,-19.137 0,-0.99 1.43,-1.32 3.184,-1.32 1.537,0 2.632,0.77 3.295,0.841 0.439,0 0.88,-0.11 0.88,-0.438 0,-1.317 -2.201,-3.43 -5.271,-3.43 -1.867,0 -3.403,0.445 -4.829,0.445 -0.987,0 -1.645,-0.445 -2.303,-0.445 -0.769,0 -1.207,0.334 -1.207,0.668 0,1.002 1.316,2.213 2.523,3.42 3.291,3.289 9.326,12.5 9.326,18.64 C 4.389,-1.755 3.291,0 0,0"
           style="fill:#231f20;fill-opacity:1;fill-rule:nonzero;stroke:none;stroke-width:0.343778"
           id="path160" /></g><g
         id="g162"
         transform="translate(405.957,193.1719)"
         style="stroke-width:0.343778"><path
           d="m 0,0 c 0,-7.767 6.055,-11.302 13.516,-11.302 2.302,0 4.388,0.446 6.142,1.225 9.324,4.06 13.164,15.875 19.637,32.465 6.691,17.339 8.447,28.972 15.576,28.972 2.963,0 4.608,-2.086 5.047,-2.086 0.439,0 0.549,0.33 0.549,0.659 0,2.095 -4.059,3.431 -5.705,3.431 -3.401,0 -6.033,-2.114 -8.117,-4.638 C 39.896,40.707 34.412,25.897 30.354,16.249 28.57,19.124 24.729,20.412 21.547,20.412 11.32,20.412 0,10.61 0,0 m 6.166,-2.078 c 0,8.423 8.008,20.128 17.002,20.128 2.549,0 5.182,-0.986 5.182,-4.157 0,-2.955 -7.243,-23.191 -15.25,-23.191 -5.071,0 -6.934,2.188 -6.934,7.22"
           style="fill:#231f20;fill-opacity:1;fill-rule:nonzero;stroke:none;stroke-width:0.343778"
           id="path164" /></g><g
         id="g166"
         transform="translate(471.375,204.3047)"
         style="stroke-width:0.343778"><path
           d="m 0,0 c -3.73,0 -3.73,5.594 -4.5,5.813 -0.66,0.22 -1.428,0.439 -2.383,0.439 -2.305,0 -3.949,-1.097 -3.949,-3.4 0,-1.646 2.084,-4.279 4.025,-7.098 2.086,-2.952 4.065,-6.124 4.065,-9.295 0,-5.796 -6.26,-8.894 -11.418,-8.894 -4.721,0 -5.158,0.112 -8.231,1.893 -1.537,0.877 -3.621,3.611 -3.621,5.47 0,1.312 0.658,2.952 2.194,2.952 1.974,0 2.853,-2.405 2.853,-3.936 0,-0.875 -0.439,-1.75 -0.439,-2.515 0,-1.641 4.279,-1.86 5.707,-1.86 4.17,0 7.463,2.078 7.463,6.343 0,2.734 -2.084,5.577 -3.475,7.615 -1.643,2.413 -3.285,4.937 -3.285,7.57 0,4.826 3.504,7.159 7.967,7.159 3.076,0 9.33,-2.223 9.33,-6.05 C 2.303,0.675 1.535,0.019 0,0"
           style="fill:#231f20;fill-opacity:1;fill-rule:nonzero;stroke:none;stroke-width:0.343778"
           id="path168" /></g><g
         id="g170"
         transform="translate(379.2354,229.5542)"
         style="stroke-width:0.343778"><path
           d="m 0,0 h -0.859 c -0.071,0.792 -0.338,1.188 -0.803,1.188 -0.297,0 -0.522,-0.1 -0.672,-0.3 -0.152,-0.2 -0.229,-0.499 -0.229,-0.899 0,-0.297 0.084,-0.575 0.252,-0.836 l 1.807,-2.828 C -0.168,-4.195 0,-4.754 0,-5.354 v -0.599 c 0,-0.645 -0.166,-1.202 -0.5,-1.672 -0.334,-0.469 -0.736,-0.703 -1.209,-0.703 h -0.854 c -0.566,0 -0.99,0.2 -1.275,0.599 -0.285,0.4 -0.428,0.997 -0.428,1.791 h 0.86 c -0.004,-0.083 -0.006,-0.148 -0.006,-0.195 0,-0.326 0.088,-0.573 0.266,-0.741 0.177,-0.167 0.375,-0.251 0.587,-0.251 0.305,0 0.524,0.102 0.657,0.307 0.132,0.204 0.199,0.502 0.199,0.892 0,0.302 -0.082,0.581 -0.246,0.837 l -1.819,2.823 c -0.332,0.516 -0.498,1.076 -0.498,1.68 v 0.6 c 0,0.646 0.166,1.203 0.498,1.673 0.332,0.469 0.733,0.704 1.205,0.704 h 0.854 C -0.639,2.391 -0.07,1.594 0,0"
           style="fill:#231f20;fill-opacity:1;fill-rule:nonzero;stroke:none;stroke-width:0.343778"
           id="path172" /></g><path
         d="m 381.769,231.945 h 1.703 v -10.719 h -1.703 z"
         style="fill:#231f20;fill-opacity:1;fill-rule:nonzero;stroke:none;stroke-width:0.343778"
         id="path174" /><g
         id="g176"
         transform="translate(386.0264,221.2261)"
         style="stroke-width:0.343778"><path
           d="M 0,0 V 10.719 H 0.387 L 5.11,4.769 v 5.95 H 5.97 V 0 H 5.575 L 0.859,5.959 V 0 Z"
           style="fill:#231f20;fill-opacity:1;fill-rule:nonzero;stroke:none;stroke-width:0.343778"
           id="path178" /></g><g
         id="g180"
         transform="translate(398.791,223.6167)"
         style="stroke-width:0.343778"><path
           d="m 0,0 c -0.076,-1.594 -0.645,-2.391 -1.707,-2.391 h -1.705 c -0.467,0 -0.865,0.234 -1.197,0.702 -0.334,0.467 -0.5,1.026 -0.5,1.678 v 5.96 c 0,0.641 0.162,1.198 0.492,1.671 0.328,0.472 0.73,0.708 1.205,0.708 h 1.705 c 1.072,0 1.641,-0.797 1.707,-2.39 h -0.859 c -0.067,0.791 -0.35,1.187 -0.85,1.187 h -0.85 C -2.791,7.125 -2.99,7.009 -3.156,6.777 -3.324,6.545 -3.408,6.266 -3.408,5.941 v -5.945 c 0,-0.32 0.084,-0.598 0.252,-0.832 0.166,-0.234 0.365,-0.352 0.597,-0.352 h 0.85 c 0.5,0 0.783,0.396 0.85,1.188 z"
           style="fill:#231f20;fill-opacity:1;fill-rule:nonzero;stroke:none;stroke-width:0.343778"
           id="path182" /></g><g
         id="g184"
         transform="translate(400.4824,221.2261)"
         style="stroke-width:0.343778"><path
           d="M 0,0 V 10.719 H 4.266 V 9.516 H 1.703 V 5.953 H 3.422 V 4.75 H 1.703 V 1.203 H 4.266 V 0 Z"
           style="fill:#231f20;fill-opacity:1;fill-rule:nonzero;stroke:none;stroke-width:0.343778"
           id="path186" /></g><g
         id="g188"
         transform="translate(408.1543,221.2261)"
         style="stroke-width:0.343778"><path
           d="m 0,0 v 8.328 h -0.844 v 1.188 l 1.699,1.203 H 1.703 V 0 Z"
           style="fill:#231f20;fill-opacity:1;fill-rule:nonzero;stroke:none;stroke-width:0.343778"
           id="path190" /></g><g
         id="g192"
         transform="translate(416.6445,224.8203)"
         style="stroke-width:0.343778"><path
           d="m 0,0 c 0,-0.65 -0.168,-1.211 -0.5,-1.683 -0.332,-0.472 -0.734,-0.708 -1.203,-0.708 h -0.846 v -1.203 h 1.272 c 0.818,0 1.519,0.41 2.103,1.231 0.584,0.821 0.875,1.8 0.875,2.935 V 4.745 C 1.701,5.392 1.533,5.95 1.199,6.42 0.863,6.89 0.463,7.125 -0.004,7.125 H -1.709 C -2.176,7.125 -2.574,6.89 -2.908,6.42 -3.24,5.951 -3.408,5.393 -3.408,4.747 V 2.362 c 0,-0.651 0.168,-1.21 0.504,-1.677 0.336,-0.468 0.734,-0.701 1.197,-0.701 h 0.853 c 0.502,0 0.788,0.405 0.854,1.215 z m -1.453,5.571 c 0.168,0.234 0.367,0.35 0.599,0.35 0.235,0 0.434,-0.115 0.602,-0.345 C -0.084,5.345 0,5.069 0,4.747 V 2.382 C 0,2.059 -0.084,1.779 -0.252,1.542 -0.42,1.305 -0.619,1.187 -0.854,1.187 c -0.232,0 -0.431,0.117 -0.599,0.351 -0.168,0.233 -0.252,0.51 -0.252,0.829 v 2.374 c 0,0.32 0.084,0.596 0.252,0.83"
           style="fill:#231f20;fill-opacity:1;fill-rule:nonzero;stroke:none;stroke-width:0.343778"
           id="path194" /></g><g
         id="g196"
         transform="translate(423.4453,224.8203)"
         style="stroke-width:0.343778"><path
           d="m 0,0 c 0,-0.65 -0.168,-1.211 -0.5,-1.683 -0.332,-0.472 -0.734,-0.708 -1.203,-0.708 h -0.844 v -1.203 h 1.27 c 0.818,0 1.519,0.41 2.103,1.231 0.584,0.821 0.877,1.8 0.877,2.935 V 4.745 C 1.703,5.392 1.535,5.95 1.199,6.42 0.863,6.89 0.463,7.125 -0.004,7.125 H -1.709 C -2.174,7.125 -2.574,6.89 -2.906,6.42 -3.24,5.951 -3.406,5.393 -3.406,4.747 V 2.362 c 0,-0.651 0.168,-1.21 0.502,-1.677 0.336,-0.468 0.736,-0.701 1.197,-0.701 h 0.853 c 0.504,0 0.788,0.405 0.854,1.215 z m -1.451,5.571 c 0.166,0.234 0.367,0.35 0.599,0.35 0.233,0 0.434,-0.115 0.6,-0.345 C -0.084,5.345 0,5.069 0,4.747 V 2.382 C 0,2.059 -0.084,1.779 -0.252,1.542 -0.418,1.305 -0.619,1.187 -0.852,1.187 c -0.232,0 -0.433,0.117 -0.599,0.351 -0.168,0.233 -0.252,0.51 -0.252,0.829 v 2.374 c 0,0.32 0.084,0.596 0.252,0.83"
           style="fill:#231f20;fill-opacity:1;fill-rule:nonzero;stroke:none;stroke-width:0.343778"
           id="path198" /></g><g
         id="g200"
         transform="translate(430.2461,224.8203)"
         style="stroke-width:0.343778"><path
           d="m 0,0 c 0,-0.65 -0.166,-1.211 -0.498,-1.683 -0.334,-0.472 -0.734,-0.708 -1.205,-0.708 h -0.844 v -1.203 h 1.27 c 0.818,0 1.521,0.41 2.103,1.231 0.584,0.821 0.877,1.8 0.877,2.935 V 4.745 C 1.703,5.392 1.535,5.95 1.199,6.42 0.865,6.89 0.463,7.125 -0.002,7.125 H -1.707 C -2.174,7.125 -2.574,6.89 -2.906,6.42 -3.24,5.951 -3.406,5.393 -3.406,4.747 V 2.362 c 0,-0.651 0.168,-1.21 0.504,-1.677 0.336,-0.468 0.734,-0.701 1.195,-0.701 h 0.853 c 0.504,0 0.79,0.405 0.854,1.215 z m -1.451,5.571 c 0.166,0.234 0.367,0.35 0.599,0.35 0.233,0 0.434,-0.115 0.6,-0.345 C -0.084,5.345 0,5.069 0,4.747 V 2.382 C 0,2.059 -0.084,1.779 -0.252,1.542 -0.418,1.305 -0.619,1.187 -0.852,1.187 c -0.232,0 -0.433,0.117 -0.599,0.351 -0.168,0.233 -0.252,0.51 -0.252,0.829 v 2.374 c 0,0.32 0.084,0.596 0.252,0.83"
           style="fill:#231f20;fill-opacity:1;fill-rule:nonzero;stroke:none;stroke-width:0.343778"
           id="path202" /></g><g
         id="g204"
         transform="translate(170.9224,177.8809)"
         style="stroke-width:0.343778"><path
           d="m 0,0 c -2.842,4.094 -8.23,11.753 -4.828,24.809 4.277,16.413 18.644,26.128 30.636,25.89 3.78,-0.074 6.438,-1.128 9.387,-2.311 C 31.133,43.219 24.922,35.218 17.944,25.107 6.537,8.836 5.187,6.987 0,0 m 16.61,-9.181 c -5.218,1.231 -7,1.892 -11.914,5.118 l -2.613,2.055 c 5.809,7.29 9.326,11.622 17.06,22.968 L 37.248,47.098 C 44.464,41.456 48.624,32 44.541,16.333 43.634,12.851 42.294,9.378 40.955,5.905 L 29.828,6.125 28.8,3.848 61.218,3.206 62.138,5.485 50.792,5.71 88.039,88.618 c 2.117,0.208 3.663,0.303 5.392,0.269 1.297,-0.026 2.561,-0.176 3.858,-0.201 l 0.919,2.277 c -1.405,0.028 -2.885,0.184 -4.397,0.214 C 72.306,91.603 55.552,75.254 36.405,50.114 33.057,51.434 30.217,52.619 26.22,52.698 13.257,52.955 -2.117,42.377 -6.686,24.845 -10.217,11.292 -4.646,3.007 -1.417,-1.688 -7.405,-8.83 -21.378,-25.703 -35.959,-25.415 c -8.532,0.17 -13.055,7.394 -10.913,15.613 1.516,5.816 4.735,7.756 6.539,8.848 -0.833,-1.236 -1.492,-2.101 -1.881,-3.596 -0.942,-3.613 0.511,-6.773 3.961,-6.842 3.342,-0.065 6.634,3 7.544,6.49 0.941,3.613 -0.737,7.154 -4.942,7.237 -3.481,0.068 -10.784,-3.294 -13.057,-12.017 -2.59,-9.937 3.264,-17.552 12.336,-17.732 12.529,-0.247 25.198,10.37 37.018,23.644 5.993,-4.502 9.233,-5.819 15.001,-7.435 z M 46.565,17.417 C 50.592,36.21 45.166,43.316 38.63,49.07 51.792,67.075 61.68,78.76 77.567,85.949 Z"
           style="fill:#ea2f2f;fill-opacity:1;fill-rule:nonzero;stroke:none;stroke-width:0.343778"
           id="path206" /></g><g
         id="g208"
         transform="translate(238.6523,205.3037)"
         style="stroke-width:0.343778"><path
           d="M 0,0 H 24.139 L 22.976,-5.154 H -1.163 Z"
           style="fill:#231f20;fill-opacity:1;fill-rule:nonzero;stroke:none;stroke-width:0.343778"
           id="path210" /></g><g
         id="g212"
         transform="translate(201.9326,169.3652)"
         style="stroke-width:0.343778"><path
           d="m 0,0 v -7.038 c 0,-0.619 0.074,-1.024 0.221,-1.214 0.148,-0.191 0.461,-0.286 0.941,-0.286 h 0.12 v -0.469 h -3.328 v 0.469 h 0.082 c 0.477,0 0.788,0.095 0.934,0.286 0.145,0.19 0.217,0.595 0.217,1.214 V 0.993 L -1.002,1.277 C -1.401,1.848 -1.77,2.134 -2.109,2.134 h -0.127 v 0.469 h 2.031 L 6.109,-5.941 V 0.634 C 6.109,1.251 6.035,1.655 5.885,1.847 5.735,2.038 5.42,2.134 4.941,2.134 H 4.829 V 2.603 H 8.141 V 2.134 H 8.013 C 7.539,2.134 7.228,2.038 7.081,1.847 6.933,1.655 6.859,1.251 6.859,0.634 L 6.852,-9.351 Z"
           style="fill:#231f20;fill-opacity:1;fill-rule:nonzero;stroke:none;stroke-width:0.343778"
           id="path214" /></g><g
         id="g216"
         transform="translate(217.5435,164.0146)"
         style="stroke-width:0.343778"><path
           d="M 0,0 0.661,-1.675 C 0.88,-2.246 0.99,-2.604 0.99,-2.748 0.99,-2.921 0.943,-3.039 0.848,-3.099 0.753,-3.157 0.566,-3.188 0.288,-3.188 h -0.12 v -0.468 h 3.148 v 0.468 H 3.227 c -0.2,0 -0.371,0.099 -0.513,0.294 -0.142,0.197 -0.335,0.602 -0.579,1.218 l -3.92,9.973 H -2.218 L -5.981,-1.675 C -6.2,-2.261 -6.399,-2.66 -6.579,-2.87 -6.758,-3.082 -6.985,-3.188 -7.259,-3.188 h -0.105 v -0.468 h 2.617 v 0.468 l -0.112,0.015 c -0.469,0.045 -0.703,0.219 -0.703,0.522 0,0.129 0.092,0.437 0.277,0.923 L -4.643,0 Z m -2.389,6.053 2.144,-5.475 h -4.198 z"
           style="fill:#231f20;fill-opacity:1;fill-rule:nonzero;stroke:none;stroke-width:0.343778"
           id="path218" /></g><g
         id="g220"
         transform="translate(225.1177,165.874)"
         style="stroke-width:0.343778"><path
           d="m 0,0 3.053,-5.516 h 2.072 v 0.469 h -0.09 c -0.234,0 -0.457,0.122 -0.669,0.365 -0.212,0.244 -0.552,0.778 -1.019,1.599 L 2.643,-1.842 C 2.17,-1.042 1.846,-0.528 1.667,-0.3 1.489,-0.071 1.25,0.142 0.948,0.341 c 0.84,0.328 1.47,0.775 1.89,1.341 0.419,0.565 0.63,1.252 0.63,2.058 0,0.862 -0.262,1.469 -0.784,1.823 C 2.161,5.917 1.265,6.094 -0.003,6.094 H -4.017 V 5.625 h 0.105 c 0.489,0 0.808,-0.096 0.955,-0.287 0.147,-0.192 0.221,-0.596 0.221,-1.213 v -7.672 c 0,-0.619 -0.074,-1.023 -0.221,-1.214 -0.147,-0.191 -0.466,-0.286 -0.955,-0.286 h -0.105 v -0.469 h 3.906 v 0.469 h -0.06 c -0.482,0 -0.798,0.097 -0.948,0.289 -0.151,0.194 -0.226,0.597 -0.226,1.211 V 0 Z m -1.345,5.625 h 0.581 C 0.206,5.625 0.912,5.45 1.353,5.102 1.793,4.753 2.014,4.195 2.014,3.429 2.014,2.687 1.854,2.056 1.533,1.538 1.212,1.02 0.76,0.663 0.177,0.469 h -1.522 z"
           style="fill:#231f20;fill-opacity:1;fill-rule:nonzero;stroke:none;stroke-width:0.343778"
           id="path222" /></g><g
         id="g224"
         transform="translate(237.4155,164.0146)"
         style="stroke-width:0.343778"><path
           d="M 0,0 0.662,-1.675 C 0.881,-2.246 0.991,-2.604 0.991,-2.748 0.991,-2.921 0.943,-3.039 0.849,-3.099 0.754,-3.157 0.567,-3.188 0.288,-3.188 h -0.12 v -0.468 h 3.148 v 0.468 H 3.227 c -0.2,0 -0.371,0.099 -0.512,0.294 -0.143,0.197 -0.336,0.602 -0.58,1.218 L -1.784,8.297 H -2.218 L -5.98,-1.675 C -6.2,-2.261 -6.399,-2.66 -6.579,-2.87 -6.758,-3.082 -6.985,-3.188 -7.259,-3.188 h -0.104 v -0.468 h 2.616 v 0.468 l -0.111,0.015 c -0.47,0.045 -0.704,0.219 -0.704,0.522 0,0.129 0.092,0.437 0.277,0.923 L -4.642,0 Z m -2.389,6.053 2.144,-5.475 h -4.198 z"
           style="fill:#231f20;fill-opacity:1;fill-rule:nonzero;stroke:none;stroke-width:0.343778"
           id="path226" /></g><g
         id="g228"
         transform="translate(255.1011,159.5615)"
         style="stroke-width:0.343778"><path
           d="m 0,0 c -0.817,0.729 -2.361,2.087 -2.361,4.466 0,2.99 2.475,4.803 4.995,4.803 0.794,0 1.408,-0.181 2.089,-0.385 C 4.155,7.932 3.292,6.459 2.384,4.602 0.886,1.611 0.704,1.271 0,0 M 3.973,-1.607 C 2.815,-1.403 2.407,-1.29 1.204,-0.723 L 0.545,-0.36 C 1.362,0.978 1.862,1.77 2.861,3.854 L 5.222,8.657 C 7.038,7.66 8.423,5.961 8.423,3.106 8.423,2.472 8.333,1.838 8.241,1.203 H 5.903 L 5.812,0.797 h 6.813 l 0.068,0.406 h -2.381 l 3.265,15.151 c 0.431,0.045 0.748,0.068 1.111,0.068 0.272,0 0.544,-0.023 0.817,-0.023 l 0.068,0.407 c -0.295,0 -0.613,0.022 -0.93,0.022 -4.513,0 -7.128,-3.007 -9.762,-7.628 -0.772,0.23 -1.43,0.438 -2.27,0.438 -2.724,0 -5.347,-1.978 -5.347,-5.172 0,-2.47 1.601,-3.941 2.532,-4.78 -0.863,-1.316 -2.851,-4.423 -5.923,-4.423 -1.797,0 -3.14,1.293 -3.14,2.79 0,1.062 0.569,1.425 0.888,1.63 -0.107,-0.228 -0.198,-0.387 -0.198,-0.659 0,-0.657 0.477,-1.224 1.205,-1.224 0.704,0 1.227,0.567 1.227,1.201 0,0.658 -0.545,1.293 -1.432,1.293 -0.735,0 -2.065,-0.635 -2.065,-2.223 0,-1.811 1.626,-3.177 3.538,-3.177 2.64,0 4.697,1.977 6.445,4.425 1.498,-0.794 2.247,-1.02 3.541,-1.293 z M 8.792,3.31 C 8.608,6.73 7.083,8 5.404,9.019 c 1.77,3.31 3.204,5.458 6.132,6.815 z"
           style="fill:#ea2f2f;fill-opacity:1;fill-rule:nonzero;stroke:none;stroke-width:0.343778"
           id="path230" /></g><g
         id="g232"
         transform="translate(271.5386,169.9932)"
         style="stroke-width:0.343778"><path
           d="M 0,0 V -7.666 C 0,-8.28 0.076,-8.684 0.229,-8.877 0.381,-9.069 0.702,-9.166 1.191,-9.166 h 0.09 v -0.469 h -3.265 v 0.469 h 0.097 c 0.49,0 0.809,0.097 0.959,0.289 0.15,0.193 0.225,0.597 0.225,1.211 v 7.672 c 0,0.617 -0.075,1.021 -0.225,1.213 -0.15,0.191 -0.469,0.287 -0.959,0.287 H -1.984 V 1.975 H 0.502 L 4.506,-6.383 8.202,1.975 H 10.75 V 1.506 H 10.638 C 10.161,1.506 9.847,1.41 9.696,1.219 9.544,1.027 9.469,0.623 9.469,0.006 v -7.375 c 0,-0.816 0.075,-1.319 0.227,-1.51 0.151,-0.191 0.465,-0.287 0.942,-0.287 H 10.75 V -9.635 H 6.906 v 0.469 h 0.083 c 0.489,0 0.811,0.095 0.966,0.286 0.155,0.191 0.233,0.595 0.233,1.214 V 0.771 L 4.07,-8.498 Z"
           style="fill:#231f20;fill-opacity:1;fill-rule:nonzero;stroke:none;stroke-width:0.343778"
           id="path234" /></g><g
         id="g236"
         transform="translate(289.8159,164.0146)"
         style="stroke-width:0.343778"><path
           d="M 0,0 0.662,-1.675 C 0.881,-2.246 0.991,-2.604 0.991,-2.748 0.991,-2.921 0.943,-3.039 0.849,-3.099 0.754,-3.157 0.567,-3.188 0.288,-3.188 h -0.12 v -0.468 h 3.148 v 0.468 H 3.227 c -0.2,0 -0.371,0.099 -0.513,0.294 -0.142,0.197 -0.335,0.602 -0.579,1.218 L -1.784,8.297 H -2.218 L -5.98,-1.675 C -6.2,-2.261 -6.399,-2.66 -6.579,-2.87 -6.758,-3.082 -6.985,-3.188 -7.259,-3.188 h -0.105 v -0.468 h 2.617 v 0.468 l -0.112,0.015 c -0.469,0.045 -0.703,0.219 -0.703,0.522 0,0.129 0.092,0.437 0.277,0.923 L -4.642,0 Z m -2.389,6.053 2.144,-5.475 h -4.198 z"
           style="fill:#231f20;fill-opacity:1;fill-rule:nonzero;stroke:none;stroke-width:0.343778"
           id="path238" /></g><g
         id="g240"
         transform="translate(297.0767,171.3896)"
         style="stroke-width:0.343778"><path
           d="M 0,0 H -1.083 C -1.9,0 -2.464,-0.12 -2.775,-0.36 -3.086,-0.601 -3.289,-1.071 -3.384,-1.771 l -0.022,-0.151 h -0.578 l 0.265,2.703 C -2.526,0.646 -1.287,0.578 0,0.578 h 1.437 c 1.292,0 2.531,0.068 3.719,0.203 L 5.421,-1.922 H 4.859 l -0.03,0.151 C 4.735,-1.071 4.532,-0.601 4.22,-0.36 3.909,-0.12 3.344,0 2.528,0 h -1.09 v -9.063 c 0,-0.622 0.088,-1.027 0.266,-1.215 0.178,-0.19 0.552,-0.285 1.129,-0.285 h 0.104 v -0.468 H -1.5 v 0.468 h 0.105 c 0.58,0 0.957,0.095 1.133,0.285 C -0.087,-10.09 0,-9.685 0,-9.063 Z"
           style="fill:#231f20;fill-opacity:1;fill-rule:nonzero;stroke:none;stroke-width:0.343778"
           id="path242" /></g><g
         id="g244"
         transform="translate(305.6855,166.2178)"
         style="stroke-width:0.343778"><path
           d="m 0,0 v -3.943 c 0,-0.498 0.194,-0.846 0.583,-1.042 0.389,-0.198 1.071,-0.296 2.049,-0.296 h 0.283 c 0.429,0 0.745,0.117 0.949,0.351 0.205,0.234 0.35,0.648 0.434,1.241 L 4.32,-3.547 H 4.859 L 4.648,-6.063 c -0.878,0.064 -1.53,0.094 -1.955,0.094 -0.454,0 -0.988,0.021 -1.601,0.059 -0.604,0.034 -0.968,0.051 -1.093,0.051 h -2.671 v 0.468 h 0.128 c 0.459,0 0.766,0.101 0.921,0.301 0.155,0.2 0.232,0.601 0.232,1.199 V 3.75 c 0,0.641 -0.072,1.056 -0.217,1.246 -0.145,0.19 -0.456,0.285 -0.936,0.285 H -2.672 V 5.75 H 4.383 L 4.594,3.609 H 4.055 L 4.032,3.766 C 3.947,4.415 3.775,4.812 3.516,4.956 3.257,5.1 2.579,5.172 1.481,5.172 H 0 V 0.469 H 1.594 C 2.329,0.469 2.8,0.538 3.005,0.677 3.21,0.814 3.313,1.13 3.313,1.622 V 1.75 H 3.844 V -1.281 H 3.313 v 0.112 c 0,0.44 -0.085,0.755 -0.255,0.944 C 2.917,-0.075 2.429,0 1.594,0 Z"
           style="fill:#231f20;fill-opacity:1;fill-rule:nonzero;stroke:none;stroke-width:0.343778"
           id="path246" /></g><g
         id="g248"
         transform="translate(311.0928,171.499)"
         style="stroke-width:0.343778"><path
           d="M 0,0 V 0.469 H 3.954 V 0 H 3.85 C 3.367,0 3.051,-0.096 2.899,-0.287 2.748,-0.479 2.672,-0.883 2.672,-1.5 v -5.217 c 0,-1.596 0.251,-2.711 0.753,-3.343 0.5,-0.636 1.188,-0.956 2.065,-0.956 0.788,0 1.402,0.304 1.839,0.912 0.438,0.609 0.662,1.619 0.671,3.031 V -1.5 C 8,-0.883 7.926,-0.479 7.775,-0.287 7.626,-0.096 7.309,0 6.824,0 H 6.719 v 0.469 h 3.423 V 0 H 10.051 C 9.566,0 9.247,-0.096 9.092,-0.287 8.938,-0.479 8.859,-0.883 8.859,-1.5 v -4.958 c 0,-1.213 -0.062,-2.072 -0.187,-2.581 -0.125,-0.509 -0.389,-0.973 -0.791,-1.391 -0.673,-0.703 -1.645,-1.054 -2.916,-1.054 -1.086,0 -1.947,0.279 -2.586,0.837 -0.437,0.384 -0.73,0.841 -0.876,1.373 -0.148,0.53 -0.222,1.384 -0.222,2.561 V -1.5 c 0,0.617 -0.074,1.021 -0.225,1.213 C 0.904,-0.096 0.586,0 0.099,0 Z"
           style="fill:#231f20;fill-opacity:1;fill-rule:nonzero;stroke:none;stroke-width:0.343778"
           id="path250" /></g><g
         id="g252"
         transform="translate(325.9883,165.874)"
         style="stroke-width:0.343778"><path
           d="m 0,0 3.055,-5.516 h 2.07 v 0.469 H 5.037 c -0.236,0 -0.459,0.122 -0.67,0.365 -0.213,0.244 -0.551,0.778 -1.019,1.599 l -0.705,1.241 c -0.471,0.8 -0.797,1.314 -0.975,1.542 -0.179,0.229 -0.418,0.442 -0.72,0.641 0.84,0.328 1.47,0.775 1.89,1.341 0.42,0.565 0.631,1.252 0.631,2.058 0,0.862 -0.262,1.469 -0.785,1.823 C 2.162,5.917 1.266,6.094 -0.003,6.094 H -4.017 V 5.625 h 0.105 c 0.489,0 0.808,-0.096 0.956,-0.287 0.147,-0.192 0.221,-0.596 0.221,-1.213 v -7.672 c 0,-0.619 -0.074,-1.023 -0.221,-1.214 -0.148,-0.191 -0.467,-0.286 -0.956,-0.286 h -0.105 v -0.469 h 3.907 v 0.469 h -0.061 c -0.481,0 -0.797,0.097 -0.947,0.289 -0.152,0.194 -0.227,0.597 -0.227,1.211 V 0 Z m -1.345,5.625 h 0.581 C 0.206,5.625 0.912,5.45 1.354,5.102 1.794,4.753 2.016,4.195 2.016,3.429 2.016,2.687 1.855,2.056 1.533,1.538 1.212,1.02 0.761,0.663 0.177,0.469 h -1.522 z"
           style="fill:#231f20;fill-opacity:1;fill-rule:nonzero;stroke:none;stroke-width:0.343778"
           id="path254" /></g><g
         id="g256"
         transform="translate(344.8457,169.4639)"
         style="stroke-width:0.343778"><path
           d="M 0,0 -2.668,-9.449 H -3.125 L -5.854,0.49 c -0.154,0.563 -0.314,0.96 -0.48,1.195 -0.168,0.234 -0.373,0.35 -0.617,0.35 h -0.098 v 0.469 h 3.395 V 2.035 h -0.135 c -0.33,0 -0.549,-0.046 -0.658,-0.138 -0.11,-0.092 -0.164,-0.276 -0.164,-0.55 0,-0.26 0.045,-0.559 0.134,-0.899 l 1.993,-7.266 2.632,9.322 H 0.572 L 3.656,-6.855 5.615,0.44 c 0.11,0.42 0.164,0.759 0.164,1.019 0,0.329 -0.271,0.519 -0.814,0.568 L 4.83,2.035 V 2.504 H 7.434 V 2.035 H 7.314 C 7.08,2.035 6.887,1.922 6.734,1.695 6.584,1.469 6.428,1.06 6.268,0.466 L 3.607,-9.449 H 3.166 Z"
           style="fill:#231f20;fill-opacity:1;fill-rule:nonzero;stroke:none;stroke-width:0.343778"
           id="path258" /></g><g
         id="g260"
         transform="translate(356.4922,160.3584)"
         style="stroke-width:0.343778"><path
           d="m 0,0 h -3.953 v 0.469 h 0.113 c 0.485,0 0.799,0.094 0.947,0.286 0.147,0.19 0.221,0.595 0.221,1.214 v 7.672 c 0,0.617 -0.074,1.021 -0.221,1.213 -0.148,0.191 -0.462,0.287 -0.947,0.287 h -0.113 v 0.468 H 0 v -0.468 h -0.098 c -0.484,0 -0.802,-0.096 -0.955,-0.287 -0.152,-0.192 -0.228,-0.596 -0.228,-1.213 V 1.969 c 0,-0.615 0.076,-1.018 0.228,-1.211 C -0.9,0.565 -0.582,0.469 -0.098,0.469 H 0 Z"
           style="fill:#231f20;fill-opacity:1;fill-rule:nonzero;stroke:none;stroke-width:0.343778"
           id="path262" /></g><g
         id="g264"
         transform="translate(359.5215,169.3652)"
         style="stroke-width:0.343778"><path
           d="m 0,0 v -7.038 c 0,-0.619 0.074,-1.024 0.221,-1.214 0.147,-0.191 0.462,-0.286 0.942,-0.286 h 0.119 v -0.469 h -3.329 v 0.469 h 0.084 c 0.477,0 0.787,0.095 0.934,0.286 0.144,0.19 0.216,0.595 0.216,1.214 V 0.993 L -1.002,1.277 C -1.4,1.848 -1.77,2.134 -2.107,2.134 h -0.129 v 0.469 h 2.031 L 6.11,-5.941 V 0.634 C 6.11,1.251 6.034,1.655 5.886,1.847 5.735,2.038 5.421,2.134 4.94,2.134 H 4.829 V 2.603 H 8.142 V 2.134 H 8.015 C 7.54,2.134 7.228,2.038 7.081,1.847 6.935,1.655 6.86,1.251 6.86,0.634 L 6.853,-9.351 Z"
           style="fill:#231f20;fill-opacity:1;fill-rule:nonzero;stroke:none;stroke-width:0.343778"
           id="path266" /></g><g
         id="g268"
         transform="translate(372.3018,160.3584)"
         style="stroke-width:0.343778"><path
           d="m 0,0 c 1.311,0 2.309,0.124 2.998,0.374 0.688,0.249 1.287,0.703 1.797,1.361 0.969,1.251 1.453,2.76 1.453,4.526 0,1.84 -0.533,3.209 -1.602,4.106 -0.634,0.484 -1.23,0.804 -1.787,0.961 C 2.303,11.486 1.35,11.579 0,11.609 h -3.955 v -0.468 h 0.135 c 0.47,0 0.777,-0.095 0.925,-0.285 0.149,-0.19 0.221,-0.594 0.221,-1.215 V 1.969 C -2.674,1.353 -2.746,0.948 -2.895,0.757 -3.043,0.564 -3.35,0.469 -3.82,0.469 H -3.955 V 0 Z m -0.563,11.141 c 1.065,0 1.885,-0.114 2.465,-0.341 C 2.48,10.574 3.012,10.161 3.49,9.563 4.299,8.541 4.701,7.258 4.701,5.712 4.701,4.137 4.365,2.88 3.691,1.94 3.018,1.001 2.117,0.531 0.988,0.531 c -1.513,0 -2.271,0.48 -2.271,1.438 v 9.172 z"
           style="fill:#231f20;fill-opacity:1;fill-rule:nonzero;stroke:none;stroke-width:0.343778"
           id="path270" /></g><g
         id="g272"
         transform="translate(395.6328,161.7412)"
         style="stroke-width:0.343778"><path
           d="m 0,0 c 0.949,1.151 1.426,2.626 1.426,4.426 0,0.927 -0.16,1.824 -0.481,2.69 -0.32,0.867 -0.756,1.58 -1.304,2.139 -0.856,0.877 -1.957,1.315 -3.303,1.315 -1.49,0 -2.709,-0.574 -3.661,-1.723 -0.949,-1.149 -1.424,-2.622 -1.424,-4.421 0,-1.8 0.475,-3.275 1.424,-4.426 0.952,-1.15 2.171,-1.727 3.661,-1.727 1.49,0 2.711,0.577 3.662,1.727 m -6.162,0.338 c -0.651,1.063 -0.977,2.425 -0.977,4.084 0,1.653 0.327,3.015 0.981,4.081 0.652,1.065 1.486,1.599 2.502,1.599 1.01,0 1.84,-0.534 2.492,-1.599 0.654,-1.066 0.98,-2.428 0.98,-4.081 0,-1.659 -0.326,-3.021 -0.98,-4.084 -0.652,-1.064 -1.482,-1.596 -2.492,-1.596 -1.022,0 -1.856,0.532 -2.506,1.596"
           style="fill:#231f20;fill-opacity:1;fill-rule:nonzero;stroke:none;stroke-width:0.343778"
           id="path274" /></g><g
         id="g276"
         transform="translate(401.9023,165.874)"
         style="stroke-width:0.343778"><path
           d="m 0,0 3.053,-5.516 h 2.072 v 0.469 H 5.033 c -0.232,0 -0.457,0.122 -0.668,0.365 -0.213,0.244 -0.552,0.778 -1.019,1.599 L 2.641,-1.842 C 2.17,-1.042 1.846,-0.528 1.666,-0.3 1.488,-0.071 1.248,0.142 0.947,0.341 1.787,0.669 2.416,1.116 2.836,1.682 3.256,2.247 3.467,2.934 3.467,3.74 3.467,4.602 3.205,5.209 2.682,5.563 2.16,5.917 1.264,6.094 -0.004,6.094 H -4.018 V 5.625 h 0.106 c 0.488,0 0.807,-0.096 0.953,-0.287 0.148,-0.192 0.223,-0.596 0.223,-1.213 v -7.672 c 0,-0.619 -0.075,-1.023 -0.223,-1.214 -0.146,-0.191 -0.465,-0.286 -0.953,-0.286 h -0.106 v -0.469 h 3.907 v 0.469 h -0.061 c -0.482,0 -0.799,0.097 -0.949,0.289 -0.15,0.194 -0.225,0.597 -0.225,1.211 V 0 Z m -1.346,5.625 h 0.58 C 0.205,5.625 0.91,5.45 1.352,5.102 1.793,4.753 2.014,4.195 2.014,3.429 2.014,2.687 1.852,2.056 1.531,1.538 1.211,1.02 0.758,0.663 0.176,0.469 h -1.522 z"
           style="fill:#231f20;fill-opacity:1;fill-rule:nonzero;stroke:none;stroke-width:0.343778"
           id="path278" /></g><g
         id="g280"
         transform="translate(415.7969,160.5928)"
         style="stroke-width:0.343778"><path
           d="m 0,0 c -1.135,-0.385 -2.188,-0.578 -3.16,-0.578 -1.606,0 -2.879,0.556 -3.822,1.667 -0.946,1.111 -1.416,2.611 -1.416,4.5 0,1.849 0.47,3.333 1.412,4.451 0.939,1.119 2.185,1.679 3.734,1.679 1.147,0 2.205,-0.156 3.174,-0.469 L 0.133,8.938 h -0.539 l -0.022,0.133 c -0.109,0.692 -0.406,1.228 -0.89,1.608 -0.485,0.381 -1.112,0.571 -1.881,0.571 -1.063,0 -1.938,-0.53 -2.623,-1.589 -0.688,-1.06 -1.03,-2.413 -1.03,-4.06 0,-1.706 0.352,-3.084 1.055,-4.134 0.705,-1.05 1.627,-1.575 2.768,-1.575 1.537,0 2.433,0.744 2.685,2.233 l 0.016,0.125 h 0.539 z"
           style="fill:#231f20;fill-opacity:1;fill-rule:nonzero;stroke:none;stroke-width:0.343778"
           id="path282" /></g><g
         id="g284"
         transform="translate(419.7344,166.1553)"
         style="stroke-width:0.343778"><path
           d="m 0,0 v -3.828 c 0,-0.614 0.076,-1.018 0.229,-1.211 0.152,-0.192 0.47,-0.289 0.955,-0.289 h 0.097 v -0.469 h -3.953 v 0.469 h 0.111 c 0.485,0 0.801,0.095 0.95,0.286 0.146,0.19 0.22,0.595 0.22,1.214 v 7.672 c 0,0.617 -0.074,1.021 -0.22,1.213 -0.149,0.191 -0.465,0.287 -0.95,0.287 H -2.672 V 5.813 H 1.281 V 5.344 H 1.184 C 0.699,5.344 0.381,5.248 0.229,5.057 0.076,4.865 0,4.461 0,3.844 V 0.578 H 4.859 V 3.844 C 4.859,4.461 4.783,4.865 4.631,5.057 4.479,5.248 4.16,5.344 3.676,5.344 H 3.578 V 5.813 H 7.531 V 5.344 H 7.418 C 6.934,5.344 6.617,5.248 6.471,5.057 6.322,4.865 6.25,4.461 6.25,3.844 v -7.672 c 0,-0.619 0.072,-1.024 0.221,-1.214 0.146,-0.191 0.463,-0.286 0.947,-0.286 H 7.531 V -5.797 H 3.578 v 0.469 h 0.098 c 0.484,0 0.803,0.097 0.955,0.289 0.152,0.193 0.228,0.597 0.228,1.211 V 0 Z"
           style="fill:#231f20;fill-opacity:1;fill-rule:nonzero;stroke:none;stroke-width:0.343778"
           id="path286" /></g><g
         id="g288"
         transform="translate(430.709,166.2178)"
         style="stroke-width:0.343778"><path
           d="m 0,0 v -3.943 c 0,-0.498 0.193,-0.846 0.582,-1.042 0.391,-0.198 1.072,-0.296 2.049,-0.296 h 0.283 c 0.43,0 0.746,0.117 0.949,0.351 0.205,0.234 0.35,0.648 0.434,1.241 L 4.32,-3.547 H 4.859 L 4.648,-6.063 c -0.878,0.064 -1.531,0.094 -1.955,0.094 -0.455,0 -0.988,0.021 -1.601,0.059 -0.604,0.034 -0.969,0.051 -1.094,0.051 h -2.67 v 0.468 h 0.127 c 0.459,0 0.768,0.101 0.922,0.301 0.154,0.2 0.232,0.601 0.232,1.199 V 3.75 c 0,0.641 -0.072,1.056 -0.216,1.246 -0.145,0.19 -0.457,0.285 -0.938,0.285 H -2.672 V 5.75 H 4.383 L 4.594,3.609 H 4.055 L 4.031,3.766 C 3.947,4.415 3.775,4.812 3.516,4.956 3.256,5.1 2.578,5.172 1.48,5.172 H 0 V 0.469 h 1.594 c 0.734,0 1.205,0.069 1.41,0.208 0.205,0.137 0.309,0.453 0.309,0.945 V 1.75 H 3.844 V -1.281 H 3.313 v 0.112 c 0,0.44 -0.086,0.755 -0.256,0.944 C 2.916,-0.075 2.43,0 1.594,0 Z"
           style="fill:#231f20;fill-opacity:1;fill-rule:nonzero;stroke:none;stroke-width:0.343778"
           id="path290" /></g><g
         id="g292"
         transform="translate(436.4766,160.4834)"
         style="stroke-width:0.343778"><path
           d="M 0,0 -0.156,2.563 H 0.383 L 0.404,2.442 C 0.543,1.661 0.832,1.059 1.268,0.636 1.703,0.212 2.254,0 2.922,0 c 0.601,0 1.121,0.224 1.553,0.669 0.433,0.445 0.65,0.982 0.65,1.61 0,0.792 -0.557,1.603 -1.67,2.429 L 2.393,5.5 C 1.363,6.269 0.689,6.865 0.369,7.291 0.051,7.718 -0.109,8.232 -0.109,8.837 c 0,0.896 0.334,1.62 1.002,2.168 0.67,0.549 1.55,0.823 2.642,0.823 0.854,0 1.721,-0.166 2.606,-0.5 L 6.375,9.141 H 5.813 L 5.781,9.262 C 5.414,10.66 4.574,11.359 3.266,11.359 2.678,11.359 2.191,11.167 1.809,10.784 1.426,10.4 1.234,9.915 1.234,9.327 1.234,8.584 1.709,7.857 2.662,7.145 L 4.189,6.009 C 5.141,5.296 5.768,4.729 6.066,4.309 6.365,3.888 6.516,3.361 6.516,2.729 6.516,1.753 6.172,0.976 5.488,0.397 4.803,-0.18 3.883,-0.469 2.727,-0.469 1.766,-0.469 0.855,-0.313 0,0"
           style="fill:#231f20;fill-opacity:1;fill-rule:nonzero;stroke:none;stroke-width:0.343778"
           id="path294" /></g><g
         id="g296"
         transform="translate(447.7617,171.3896)"
         style="stroke-width:0.343778"><path
           d="M 0,0 H -1.082 C -1.9,0 -2.463,-0.12 -2.775,-0.36 -3.086,-0.601 -3.289,-1.071 -3.383,-1.771 l -0.023,-0.151 h -0.578 l 0.265,2.703 C -2.525,0.646 -1.287,0.578 0,0.578 h 1.438 c 1.291,0 2.531,0.068 3.718,0.203 L 5.422,-1.922 H 4.859 L 4.83,-1.771 C 4.736,-1.071 4.531,-0.601 4.221,-0.36 3.91,-0.12 3.346,0 2.529,0 H 1.438 v -9.063 c 0,-0.622 0.087,-1.027 0.265,-1.215 0.178,-0.19 0.555,-0.285 1.129,-0.285 h 0.106 v -0.468 H -1.5 v 0.468 h 0.105 c 0.581,0 0.957,0.095 1.133,0.285 C -0.088,-10.09 0,-9.685 0,-9.063 Z"
           style="fill:#231f20;fill-opacity:1;fill-rule:nonzero;stroke:none;stroke-width:0.343778"
           id="path298" /></g><g
         id="g300"
         transform="translate(457.7168,165.874)"
         style="stroke-width:0.343778"><path
           d="m 0,0 3.053,-5.516 h 2.072 v 0.469 h -0.09 c -0.234,0 -0.457,0.122 -0.67,0.365 -0.211,0.244 -0.551,0.778 -1.019,1.599 L 2.643,-1.842 C 2.17,-1.042 1.846,-0.528 1.666,-0.3 1.488,-0.071 1.248,0.142 0.947,0.341 1.787,0.669 2.416,1.116 2.838,1.682 3.258,2.247 3.467,2.934 3.467,3.74 3.467,4.602 3.205,5.209 2.684,5.563 2.16,5.917 1.264,6.094 -0.004,6.094 H -4.018 V 5.625 h 0.106 c 0.488,0 0.807,-0.096 0.955,-0.287 0.146,-0.192 0.221,-0.596 0.221,-1.213 v -7.672 c 0,-0.619 -0.075,-1.023 -0.221,-1.214 -0.148,-0.191 -0.467,-0.286 -0.955,-0.286 h -0.106 v -0.469 h 3.907 v 0.469 h -0.061 c -0.482,0 -0.797,0.097 -0.947,0.289 -0.152,0.194 -0.227,0.597 -0.227,1.211 V 0 Z m -1.346,5.625 h 0.582 C 0.205,5.625 0.91,5.45 1.352,5.102 1.793,4.753 2.014,4.195 2.014,3.429 2.014,2.687 1.854,2.056 1.533,1.538 1.211,1.02 0.76,0.663 0.176,0.469 h -1.522 z"
           style="fill:#231f20;fill-opacity:1;fill-rule:nonzero;stroke:none;stroke-width:0.343778"
           id="path302" /></g><g
         id="g304"
         transform="translate(470.0137,164.0146)"
         style="stroke-width:0.343778"><path
           d="M 0,0 0.662,-1.675 C 0.881,-2.246 0.99,-2.604 0.99,-2.748 0.99,-2.921 0.943,-3.039 0.85,-3.099 0.754,-3.157 0.568,-3.188 0.289,-3.188 H 0.168 v -0.468 h 3.148 v 0.468 H 3.227 c -0.2,0 -0.37,0.099 -0.512,0.294 -0.143,0.197 -0.334,0.602 -0.58,1.218 L -1.783,8.297 H -2.217 L -5.98,-1.675 c -0.219,-0.586 -0.418,-0.985 -0.598,-1.195 -0.18,-0.212 -0.406,-0.318 -0.68,-0.318 h -0.105 v -0.468 h 2.617 v 0.468 l -0.113,0.015 c -0.467,0.045 -0.702,0.219 -0.702,0.522 0,0.129 0.092,0.437 0.276,0.923 L -4.641,0 Z m -2.389,6.053 2.145,-5.475 h -4.199 z"
           style="fill:#231f20;fill-opacity:1;fill-rule:nonzero;stroke:none;stroke-width:0.343778"
           id="path306" /></g></g></g></svg>
