<?xml version="1.0" encoding="UTF-8" standalone="no"?>
<!-- Created with Inkscape (http://www.inkscape.org/) -->

<svg
   width="82.781998"
   height="29.891001"
   viewBox="0 0 21.902736 7.9086606"
   version="1.1"
   id="svg22061"
   inkscape:version="1.2.2 (b0a8486, 2022-12-01)"
   sodipodi:docname="tmp.svg"
   xmlns:inkscape="http://www.inkscape.org/namespaces/inkscape"
   xmlns:sodipodi="http://sodipodi.sourceforge.net/DTD/sodipodi-0.dtd"
   xmlns="http://www.w3.org/2000/svg"
   xmlns:svg="http://www.w3.org/2000/svg">
  <sodipodi:namedview
     id="namedview22063"
     pagecolor="#ffffff"
     bordercolor="#999999"
     borderopacity="1"
     inkscape:showpageshadow="0"
     inkscape:pageopacity="0"
     inkscape:pagecheckerboard="0"
     inkscape:deskcolor="#d1d1d1"
     inkscape:document-units="mm"
     showgrid="false"
     inkscape:zoom="7.8953529"
     inkscape:cx="40.023543"
     inkscape:cy="14.9455"
     inkscape:window-width="1440"
     inkscape:window-height="900"
     inkscape:window-x="0"
     inkscape:window-y="0"
     inkscape:window-maximized="0"
     inkscape:current-layer="layer1" />
  <defs
     id="defs22058">
    <clipPath
       clipPathUnits="userSpaceOnUse"
       id="clipPath1338">
      <path
         d="M 0,0 H 595.274 V 841.89 H 0 Z"
         id="path1336" />
    </clipPath>
  </defs>
  <g
     inkscape:label="Layer 1"
     inkscape:groupmode="layer"
     id="layer1">
    <g
       id="g1332"
       transform="matrix(0.35277777,0,0,-0.35277777,-13.529698,290.94701)">
      <g
         id="g1334"
         clip-path="url(#clipPath1338)">
        <g
           id="g1766"
           transform="translate(55.2979,819.0977)">
          <path
             d="m 0,0 c -2.323,-1.08 -3.457,-2.791 -4.861,-5.419 1.332,-0.811 2.538,-1.819 2.683,-4.538 z m -7.256,-8.931 c 0.72,1.477 1.404,2.647 1.855,3.403 -0.54,0.162 -1.027,0.306 -1.657,0.306 -1.999,0 -3.961,-1.44 -3.961,-3.817 0,-1.89 1.224,-2.971 1.873,-3.547 0.558,1.008 0.702,1.278 1.89,3.655 m 1.188,-5.221 c -1.026,0.216 -1.62,0.396 -2.808,1.026 -1.387,-1.944 -3.025,-3.511 -5.114,-3.511 -1.512,0 -2.809,1.08 -2.809,2.521 0,1.26 1.063,1.764 1.639,1.764 0.702,0 1.134,-0.504 1.134,-1.026 0,-0.504 -0.414,-0.954 -0.973,-0.954 -0.576,0 -0.954,0.45 -0.954,0.972 0,0.216 0.073,0.342 0.162,0.522 -0.251,-0.162 -0.702,-0.45 -0.702,-1.296 0,-1.189 1.063,-2.215 2.485,-2.215 2.431,0 4.015,2.467 4.699,3.511 -0.738,0.666 -2.016,1.837 -2.016,3.799 0,2.539 2.088,4.105 4.249,4.105 0.666,0 1.188,-0.162 1.801,-0.341 2.088,3.672 4.159,6.067 7.742,6.067 0.252,0 0.504,-0.018 0.738,-0.018 L 3.151,0.45 C 2.935,0.45 2.719,0.468 2.503,0.468 2.215,0.468 1.963,0.45 1.621,0.414 l -2.593,-12.045 h 1.89 l -0.054,-0.325 h -5.401 l 0.072,0.325 h 1.854 c 0.072,0.504 0.145,1.008 0.145,1.512 0,2.268 -1.099,3.619 -2.539,4.411 l -1.873,-3.817 c -0.792,-1.656 -1.188,-2.287 -1.836,-3.349 l 0.522,-0.288 c 0.954,-0.45 1.278,-0.54 2.196,-0.702 z"
             style="fill:#ed1c24;fill-opacity:1;fill-rule:nonzero;stroke:none"
             id="path1768" />
        </g>
        <g
           id="g1770"
           transform="translate(55.2979,819.0977)">
          <path
             d="m 0,0 c -2.323,-1.08 -3.457,-2.791 -4.861,-5.419 1.332,-0.811 2.538,-1.819 2.683,-4.538 z m -7.256,-8.931 c 0.72,1.477 1.404,2.647 1.855,3.403 -0.54,0.162 -1.027,0.306 -1.657,0.306 -1.999,0 -3.961,-1.44 -3.961,-3.817 0,-1.89 1.224,-2.971 1.873,-3.547 0.558,1.008 0.702,1.278 1.89,3.655 z m 1.188,-5.221 c -1.026,0.216 -1.62,0.396 -2.808,1.026 -1.387,-1.944 -3.025,-3.511 -5.114,-3.511 -1.512,0 -2.809,1.08 -2.809,2.521 0,1.26 1.063,1.764 1.639,1.764 0.702,0 1.134,-0.504 1.134,-1.026 0,-0.504 -0.414,-0.954 -0.973,-0.954 -0.576,0 -0.954,0.45 -0.954,0.972 0,0.216 0.073,0.342 0.162,0.522 -0.251,-0.162 -0.702,-0.45 -0.702,-1.296 0,-1.189 1.063,-2.215 2.485,-2.215 2.431,0 4.015,2.467 4.699,3.511 -0.738,0.666 -2.016,1.837 -2.016,3.799 0,2.539 2.088,4.105 4.249,4.105 0.666,0 1.188,-0.162 1.801,-0.341 2.088,3.672 4.159,6.067 7.742,6.067 0.252,0 0.504,-0.018 0.738,-0.018 L 3.151,0.45 C 2.935,0.45 2.719,0.468 2.503,0.468 2.215,0.468 1.963,0.45 1.621,0.414 l -2.593,-12.045 h 1.89 l -0.054,-0.325 h -5.401 l 0.072,0.325 h 1.854 c 0.072,0.504 0.145,1.008 0.145,1.512 0,2.268 -1.099,3.619 -2.539,4.411 l -1.873,-3.817 c -0.792,-1.656 -1.188,-2.287 -1.836,-3.349 l 0.522,-0.288 c 0.954,-0.45 1.278,-0.54 2.196,-0.702 z"
             style="fill:none;stroke:#ed1c24;stroke-width:0.294;stroke-linecap:butt;stroke-linejoin:round;stroke-miterlimit:10;stroke-dasharray:none;stroke-opacity:1"
             id="path1772" />
        </g>
        <g
           id="g1774"
           transform="translate(57.9683,812.9043)">
          <path
             d="M 0,0 H 4.483 L 4.268,-0.868 h -4.484 z"
             style="fill:#ffffff;fill-opacity:1;fill-rule:nonzero;stroke:none"
             id="path1776" />
        </g>
        <g
           id="g1778"
           transform="translate(70.9478,815.8203)">
          <path
             d="m 0,0 c -1.415,0 -2.673,-3.302 -2.673,-4.815 0,-0.826 0.059,-2.005 0.256,-2.005 0.471,0 2.948,3.44 2.948,5.838 C 0.531,-0.236 0.393,0 0,0 M -2.358,2.889 C -3.085,2.614 -3.813,2.437 -4.579,2.437 c -0.452,0 -0.943,0.138 -1.277,0.236 -0.492,0.138 -0.767,0.275 -1.141,0.275 -0.825,0 -0.884,-0.354 -1.081,-0.354 -0.039,0 -0.059,0.02 -0.059,0.059 0,0.256 0.924,1.002 1.671,1.002 1.533,0 1.945,-0.353 3.145,-0.353 0.963,0 1.651,0.255 1.788,0.255 0.059,0 0.098,-0.039 0.098,-0.118 0,-0.078 -1.159,-1.297 -2.378,-3.262 -1.199,-1.946 -2.142,-4.186 -2.142,-6.309 0,-0.904 0.197,-1.768 1.258,-1.768 0.707,0 1.415,0.392 1.886,0.805 -0.137,0.531 -0.215,1.12 -0.215,2.083 0,1.907 1.277,5.366 3.026,5.366 0.629,0 0.884,-0.55 0.884,-1.179 0,-2.221 -1.611,-4.874 -3.203,-6.309 0.196,-0.472 0.708,-0.766 1.277,-0.766 3.224,0 5.759,6.328 5.759,8.863 0,0.629 -0.118,1.258 -0.55,1.769 -0.256,0.294 -0.904,0.353 -0.904,0.452 0,0.098 0.058,0.118 0.117,0.118 1.337,0 1.848,-1.671 1.848,-3.086 0,-3.125 -1.749,-6.446 -3.911,-7.743 -0.649,-0.393 -1.356,-0.727 -2.221,-0.727 -0.766,0 -1.258,0.196 -1.69,0.884 -0.708,-0.57 -1.356,-0.884 -2.26,-0.884 -1.533,0 -2.202,1.336 -2.202,2.692 0,2.358 2.221,5.68 3.793,7.37 0.178,0.177 0.846,0.924 0.924,1.061 z"
             style="fill:#ffffff;fill-opacity:1;fill-rule:nonzero;stroke:none"
             id="path1780" />
        </g>
        <g
           id="g1782"
           transform="translate(70.9478,815.8203)"
           inkscape:export-filename="g1782.svg"
           inkscape:export-xdpi="96"
           inkscape:export-ydpi="96">
          <path
             d="m 0,0 c -1.415,0 -2.673,-3.302 -2.673,-4.815 0,-0.826 0.059,-2.005 0.256,-2.005 0.471,0 2.948,3.44 2.948,5.838 C 0.531,-0.236 0.393,0 0,0 Z M -2.358,2.889 C -3.085,2.614 -3.813,2.437 -4.579,2.437 c -0.452,0 -0.943,0.138 -1.277,0.236 -0.492,0.138 -0.767,0.275 -1.141,0.275 -0.825,0 -0.884,-0.354 -1.081,-0.354 -0.039,0 -0.059,0.02 -0.059,0.059 0,0.256 0.924,1.002 1.671,1.002 1.533,0 1.945,-0.353 3.145,-0.353 0.963,0 1.651,0.255 1.788,0.255 0.059,0 0.098,-0.039 0.098,-0.118 0,-0.078 -1.159,-1.297 -2.378,-3.262 -1.199,-1.946 -2.142,-4.186 -2.142,-6.309 0,-0.904 0.197,-1.768 1.258,-1.768 0.707,0 1.415,0.392 1.886,0.805 -0.137,0.531 -0.215,1.12 -0.215,2.083 0,1.907 1.277,5.366 3.026,5.366 0.629,0 0.884,-0.55 0.884,-1.179 0,-2.221 -1.611,-4.874 -3.203,-6.309 0.196,-0.472 0.708,-0.766 1.277,-0.766 3.224,0 5.759,6.328 5.759,8.863 0,0.629 -0.118,1.258 -0.55,1.769 -0.256,0.294 -0.904,0.353 -0.904,0.452 0,0.098 0.058,0.118 0.117,0.118 1.337,0 1.848,-1.671 1.848,-3.086 0,-3.125 -1.749,-6.446 -3.911,-7.743 -0.649,-0.393 -1.356,-0.727 -2.221,-0.727 -0.766,0 -1.258,0.196 -1.69,0.884 -0.708,-0.57 -1.356,-0.884 -2.26,-0.884 -1.533,0 -2.202,1.336 -2.202,2.692 0,2.358 2.221,5.68 3.793,7.37 0.178,0.177 0.846,0.924 0.924,1.061 z"
             style="fill:none;stroke:#ffffff;stroke-width:0.305;stroke-linecap:butt;stroke-linejoin:round;stroke-miterlimit:10;stroke-dasharray:none;stroke-opacity:1"
             id="path1784" />
        </g>
        <g
           id="g1786"
           transform="translate(81.3623,815.5649)">
          <path
             d="m 0,0 c 0,-0.314 -0.275,-0.649 -0.649,-0.649 -0.373,0 -0.648,0.335 -0.648,0.649 0,0.314 0.275,0.648 0.648,0.648 C -0.275,0.648 0,0.314 0,0 m -1.455,-2.791 c 0,-0.098 -0.058,-0.157 -0.117,-0.255 -1.356,-2.437 -2.221,-3.813 -2.221,-4.108 0,-0.236 0.157,-0.491 0.413,-0.491 0.117,0 0.215,0.098 0.334,0.098 0.059,0 0.137,-0.02 0.137,-0.078 0,-0.354 -0.59,-0.374 -0.864,-0.374 -0.335,0 -0.669,0.079 -1.003,0.079 -0.295,0 -0.609,-0.079 -0.924,-0.079 -0.353,0 -0.432,-0.02 -0.432,0.138 0,0.117 0.216,0.216 0.531,0.216 0.55,0 1.513,2.437 2.476,3.931 -0.334,-0.04 -0.806,-0.237 -1.042,-0.237 -0.039,0 -0.098,0.02 -0.098,0.099 0,0.098 0.079,0.177 0.177,0.216 0.432,0.177 2.319,1.022 2.476,1.022 0.118,0 0.157,-0.079 0.157,-0.177"
             style="fill:#ffffff;fill-opacity:1;fill-rule:nonzero;stroke:none"
             id="path1788" />
        </g>
        <g
           id="g1790"
           transform="translate(81.3623,815.5649)">
          <path
             d="m 0,0 c 0,-0.314 -0.275,-0.649 -0.649,-0.649 -0.373,0 -0.648,0.335 -0.648,0.649 0,0.314 0.275,0.648 0.648,0.648 C -0.275,0.648 0,0.314 0,0 Z m -1.455,-2.791 c 0,-0.098 -0.058,-0.157 -0.117,-0.255 -1.356,-2.437 -2.221,-3.813 -2.221,-4.108 0,-0.236 0.157,-0.491 0.413,-0.491 0.117,0 0.215,0.098 0.334,0.098 0.059,0 0.137,-0.02 0.137,-0.078 0,-0.354 -0.59,-0.374 -0.864,-0.374 -0.335,0 -0.669,0.079 -1.003,0.079 -0.295,0 -0.609,-0.079 -0.924,-0.079 -0.353,0 -0.432,-0.02 -0.432,0.138 0,0.117 0.216,0.216 0.531,0.216 0.55,0 1.513,2.437 2.476,3.931 -0.334,-0.04 -0.806,-0.237 -1.042,-0.237 -0.039,0 -0.098,0.02 -0.098,0.099 0,0.098 0.079,0.177 0.177,0.216 0.432,0.177 2.319,1.022 2.476,1.022 0.118,0 0.157,-0.079 0.157,-0.177 z"
             style="fill:none;stroke:#ffffff;stroke-width:0.305;stroke-linecap:butt;stroke-linejoin:round;stroke-miterlimit:10;stroke-dasharray:none;stroke-opacity:1"
             id="path1792" />
        </g>
        <g
           id="g1794"
           transform="translate(85.2134,812.5186)">
          <path
             d="m 0,0 c -1.375,0 -2.417,-1.848 -2.987,-2.889 -0.216,-0.374 -0.649,-1.081 -0.649,-1.494 0,-0.157 0.098,-0.216 0.217,-0.216 0.235,0 0.393,0.334 0.53,0.334 0.098,0 0.138,-0.078 0.138,-0.157 0,-0.236 -0.728,-0.531 -0.904,-0.531 -0.512,0 -0.786,0.079 -0.944,0.079 -0.235,0 -0.648,-0.079 -0.963,-0.079 -0.118,0 -0.275,0 -0.275,0.079 0,0.098 0.177,0.275 0.374,0.275 0.412,0 0.648,0.295 0.805,0.609 0.649,1.199 1.219,2.379 1.847,3.577 -0.314,-0.039 -0.766,-0.235 -1.041,-0.235 -0.079,0 -0.098,0.039 -0.098,0.098 0,0.176 0.963,0.432 2.005,0.845 0.157,0.059 0.294,0.138 0.392,0.138 0.079,0 0.118,-0.079 0.118,-0.138 0,-0.157 -0.196,-0.452 -0.235,-0.688 0.452,0.354 1.552,0.943 2.142,0.943 0.825,0 1.415,-0.432 1.415,-1.297 0,-1.611 -2.103,-3.203 -2.103,-3.42 0,-0.176 0.256,-0.235 0.57,-0.235 0.275,0 0.472,0.137 0.589,0.137 0.079,0 0.158,-0.019 0.158,-0.078 0,-0.236 -0.393,-0.61 -0.944,-0.61 -0.334,0 -0.609,0.079 -0.865,0.079 -0.176,0 -0.294,-0.079 -0.412,-0.079 -0.138,0 -0.216,0.059 -0.216,0.118 0,0.177 0.235,0.394 0.452,0.609 0.589,0.59 1.67,2.241 1.67,3.342 C 0.786,-0.314 0.59,0 0,0"
             style="fill:#ffffff;fill-opacity:1;fill-rule:nonzero;stroke:none"
             id="path1796" />
        </g>
        <g
           id="g1798"
           transform="translate(85.2134,812.5186)">
          <path
             d="m 0,0 c -1.375,0 -2.417,-1.848 -2.987,-2.889 -0.216,-0.374 -0.649,-1.081 -0.649,-1.494 0,-0.157 0.098,-0.216 0.217,-0.216 0.235,0 0.393,0.334 0.53,0.334 0.098,0 0.138,-0.078 0.138,-0.157 0,-0.236 -0.728,-0.531 -0.904,-0.531 -0.512,0 -0.786,0.079 -0.944,0.079 -0.235,0 -0.648,-0.079 -0.963,-0.079 -0.118,0 -0.275,0 -0.275,0.079 0,0.098 0.177,0.275 0.374,0.275 0.412,0 0.648,0.295 0.805,0.609 0.649,1.199 1.219,2.379 1.847,3.577 -0.314,-0.039 -0.766,-0.235 -1.041,-0.235 -0.079,0 -0.098,0.039 -0.098,0.098 0,0.176 0.963,0.432 2.005,0.845 0.157,0.059 0.294,0.138 0.392,0.138 0.079,0 0.118,-0.079 0.118,-0.138 0,-0.157 -0.196,-0.452 -0.235,-0.688 0.452,0.354 1.552,0.943 2.142,0.943 0.825,0 1.415,-0.432 1.415,-1.297 0,-1.611 -2.103,-3.203 -2.103,-3.42 0,-0.176 0.256,-0.235 0.57,-0.235 0.275,0 0.472,0.137 0.589,0.137 0.079,0 0.158,-0.019 0.158,-0.078 0,-0.236 -0.393,-0.61 -0.944,-0.61 -0.334,0 -0.609,0.079 -0.865,0.079 -0.176,0 -0.294,-0.079 -0.412,-0.079 -0.138,0 -0.216,0.059 -0.216,0.118 0,0.177 0.235,0.394 0.452,0.609 0.589,0.59 1.67,2.241 1.67,3.342 C 0.786,-0.314 0.59,0 0,0 Z"
             style="fill:none;stroke:#ffffff;stroke-width:0.305;stroke-linecap:butt;stroke-linejoin:round;stroke-miterlimit:10;stroke-dasharray:none;stroke-opacity:1"
             id="path1800" />
        </g>
        <g
           id="g1802"
           transform="translate(90.499,807.9199)">
          <path
             d="M 0,0 C 1.435,0 2.732,3.636 2.732,4.166 2.732,4.736 2.26,4.913 1.789,4.913 0.177,4.913 -1.258,2.81 -1.258,1.297 -1.258,0.393 -0.923,0 0,0 m 1.513,5.346 c 0.57,0 1.258,-0.237 1.572,-0.747 0.728,1.729 1.71,4.382 2.91,5.817 0.373,0.452 0.844,0.825 1.454,0.825 0.295,0 1.022,-0.235 1.022,-0.609 0,-0.059 -0.02,-0.118 -0.098,-0.118 -0.079,0 -0.374,0.374 -0.905,0.374 -1.277,0 -1.592,-2.083 -2.79,-5.189 C 3.518,2.712 2.83,0.589 1.16,-0.138 0.845,-0.275 0.472,-0.354 0.059,-0.354 c -1.336,0 -2.417,0.629 -2.417,2.024 0,1.907 2.024,3.676 3.871,3.676"
             style="fill:#ffffff;fill-opacity:1;fill-rule:nonzero;stroke:none"
             id="path1804" />
        </g>
        <g
           id="g1806"
           transform="translate(90.499,807.9199)">
          <path
             d="M 0,0 C 1.435,0 2.732,3.636 2.732,4.166 2.732,4.736 2.26,4.913 1.789,4.913 0.177,4.913 -1.258,2.81 -1.258,1.297 -1.258,0.393 -0.923,0 0,0 Z m 1.513,5.346 c 0.57,0 1.258,-0.237 1.572,-0.747 0.728,1.729 1.71,4.382 2.91,5.817 0.373,0.452 0.844,0.825 1.454,0.825 0.295,0 1.022,-0.235 1.022,-0.609 0,-0.059 -0.02,-0.118 -0.098,-0.118 -0.079,0 -0.374,0.374 -0.905,0.374 -1.277,0 -1.592,-2.083 -2.79,-5.189 C 3.518,2.712 2.83,0.589 1.16,-0.138 0.845,-0.275 0.472,-0.354 0.059,-0.354 c -1.336,0 -2.417,0.629 -2.417,2.024 0,1.907 2.024,3.676 3.871,3.676 z"
             style="fill:none;stroke:#ffffff;stroke-width:0.305;stroke-linecap:butt;stroke-linejoin:round;stroke-miterlimit:10;stroke-dasharray:none;stroke-opacity:1"
             id="path1808" />
        </g>
        <g
           id="g1810"
           transform="translate(99.8726,811.5947)">
          <path
             d="m 0,0 c -0.668,0 -0.668,1.002 -0.806,1.042 -0.118,0.039 -0.255,0.078 -0.432,0.078 -0.413,0 -0.707,-0.196 -0.707,-0.609 0,-0.295 0.373,-0.766 0.727,-1.278 0.373,-0.53 0.727,-1.1 0.727,-1.67 0,-1.042 -1.12,-1.592 -2.044,-1.592 -0.845,0 -0.924,0.02 -1.474,0.334 -0.275,0.157 -0.649,0.649 -0.649,0.983 0,0.236 0.118,0.53 0.393,0.53 0.354,0 0.511,-0.432 0.511,-0.707 0,-0.157 -0.078,-0.314 -0.078,-0.452 0,-0.295 0.766,-0.334 1.021,-0.334 0.748,0 1.337,0.373 1.337,1.14 0,0.491 -0.373,1.002 -0.629,1.376 -0.294,0.432 -0.589,0.884 -0.589,1.356 0,0.865 0.629,1.277 1.434,1.277 0.55,0 1.671,-0.393 1.671,-1.081 C 0.413,0.118 0.275,0 0,0"
             style="fill:#ffffff;fill-opacity:1;fill-rule:nonzero;stroke:none"
             id="path1812" />
        </g>
        <g
           id="g1814"
           transform="translate(99.8726,811.5947)">
          <path
             d="m 0,0 c -0.668,0 -0.668,1.002 -0.806,1.042 -0.118,0.039 -0.255,0.078 -0.432,0.078 -0.413,0 -0.707,-0.196 -0.707,-0.609 0,-0.295 0.373,-0.766 0.727,-1.278 0.373,-0.53 0.727,-1.1 0.727,-1.67 0,-1.042 -1.12,-1.592 -2.044,-1.592 -0.845,0 -0.924,0.02 -1.474,0.334 -0.275,0.157 -0.649,0.649 -0.649,0.983 0,0.236 0.118,0.53 0.393,0.53 0.354,0 0.511,-0.432 0.511,-0.707 0,-0.157 -0.078,-0.314 -0.078,-0.452 0,-0.295 0.766,-0.334 1.021,-0.334 0.748,0 1.337,0.373 1.337,1.14 0,0.491 -0.373,1.002 -0.629,1.376 -0.294,0.432 -0.589,0.884 -0.589,1.356 0,0.865 0.629,1.277 1.434,1.277 0.55,0 1.671,-0.393 1.671,-1.081 C 0.413,0.118 0.275,0 0,0 Z"
             style="fill:none;stroke:#ffffff;stroke-width:0.305;stroke-linecap:butt;stroke-linejoin:round;stroke-miterlimit:10;stroke-dasharray:none;stroke-opacity:1"
             id="path1816" />
        </g>
      </g>
    </g>
  </g>
</svg>
