<?xml version="1.0" encoding="UTF-8" standalone="no"?>
<!-- Created with Inkscape (http://www.inkscape.org/) -->

<svg
   width="528.80902"
   height="528.80902"
   viewBox="0 0 139.91405 139.91405"
   version="1.1"
   id="svg1498"
   inkscape:version="1.2.2 (b0a8486, 2022-12-01)"
   sodipodi:docname="A.svg"
   xmlns:inkscape="http://www.inkscape.org/namespaces/inkscape"
   xmlns:sodipodi="http://sodipodi.sourceforge.net/DTD/sodipodi-0.dtd"
   xmlns="http://www.w3.org/2000/svg"
   xmlns:svg="http://www.w3.org/2000/svg">
  <sodipodi:namedview
     id="namedview1500"
     pagecolor="#ffffff"
     bordercolor="#999999"
     borderopacity="1"
     inkscape:showpageshadow="0"
     inkscape:pageopacity="0"
     inkscape:pagecheckerboard="0"
     inkscape:deskcolor="#d1d1d1"
     inkscape:document-units="mm"
     showgrid="false"
     inkscape:zoom="0.2102413"
     inkscape:cx="228.30909"
     inkscape:cy="561.25984"
     inkscape:window-width="1440"
     inkscape:window-height="872"
     inkscape:window-x="0"
     inkscape:window-y="28"
     inkscape:window-maximized="0"
     inkscape:current-layer="layer1" />
  <defs
     id="defs1495" />
  <g
     inkscape:label="Layer 1"
     inkscape:groupmode="layer"
     id="layer1">
    <g
       id="g228"
       transform="matrix(5.5488435,0,0,-5.5488435,53.501949,111.58165)"
       style="stroke-width:0.0635768">
      <path
         d="m 0,0 c -0.817,0.729 -2.361,2.087 -2.361,4.466 0,2.99 2.475,4.803 4.995,4.803 0.794,0 1.408,-0.181 2.089,-0.385 C 4.155,7.932 3.292,6.459 2.384,4.602 0.886,1.611 0.704,1.271 0,0 M 3.973,-1.607 C 2.815,-1.403 2.407,-1.29 1.204,-0.723 L 0.545,-0.36 C 1.362,0.978 1.862,1.77 2.861,3.854 L 5.222,8.657 C 7.038,7.66 8.423,5.961 8.423,3.106 8.423,2.472 8.333,1.838 8.241,1.203 H 5.903 L 5.812,0.797 h 6.813 l 0.068,0.406 h -2.381 l 3.265,15.151 c 0.431,0.045 0.748,0.068 1.111,0.068 0.272,0 0.544,-0.023 0.817,-0.023 l 0.068,0.407 c -0.295,0 -0.613,0.022 -0.93,0.022 -4.513,0 -7.128,-3.007 -9.762,-7.628 -0.772,0.23 -1.43,0.438 -2.27,0.438 -2.724,0 -5.347,-1.978 -5.347,-5.172 0,-2.47 1.601,-3.941 2.532,-4.78 -0.863,-1.316 -2.851,-4.423 -5.923,-4.423 -1.797,0 -3.14,1.293 -3.14,2.79 0,1.062 0.569,1.425 0.888,1.63 -0.107,-0.228 -0.198,-0.387 -0.198,-0.659 0,-0.657 0.477,-1.224 1.205,-1.224 0.704,0 1.227,0.567 1.227,1.201 0,0.658 -0.545,1.293 -1.432,1.293 -0.735,0 -2.065,-0.635 -2.065,-2.223 0,-1.811 1.626,-3.177 3.538,-3.177 2.64,0 4.697,1.977 6.445,4.425 1.498,-0.794 2.247,-1.02 3.541,-1.293 z M 8.792,3.31 C 8.608,6.73 7.083,8 5.404,9.019 c 1.77,3.31 3.204,5.458 6.132,6.815 z"
         style="fill:#ea2f2f;fill-opacity:1;fill-rule:nonzero;stroke:none;stroke-width:0.0635768"
         id="path230" />
    </g>
  </g>
</svg>
